<?xml version="1.0" encoding="UTF-8"?>
<svg width="76px" height="60px" viewBox="0 0 76 60" version="1.1" xmlns="http://www.w3.org/2000/svg" xmlns:xlink="http://www.w3.org/1999/xlink">
    <title>快速入口</title>
    <g id="页面-1" stroke="none" stroke-width="1" fill="none" fill-rule="evenodd">
        <g id="图标PC" transform="translate(-386.000000, -726.000000)" fill-rule="nonzero">
            <g id="快速入口" transform="translate(386.000000, 726.000000)">
                <circle id="椭圆形" fill="#FFFFFF" cx="39" cy="15" r="15"></circle>
                <path d="M31.3646398,13.6252385 L46.2446398,8.0352385 C46.6946398,7.8852385 47.0946398,8.2352385 46.9946398,8.6852385 L43.0046398,21.9652385 C42.9046398,22.3152385 42.4546398,22.4652385 42.1546398,22.2652385 L39.0546398,20.1152385 L37.6046398,21.4152385 C37.2546398,21.7152385 36.7046398,21.5152385 36.7046398,21.0652385 L36.5546398,18.1152385 C36.5546398,17.9652385 36.6046398,17.8152385 36.7046398,17.7152385 L43.6946398,10.9252385 L35.3046398,16.9152385 C35.1046398,17.0652385 34.8546398,17.0652385 34.7046398,16.9152385 L31.2546398,14.6152385 C30.8546398,14.3152385 30.9546398,13.7652385 31.3546398,13.6152385 L31.3546398,13.6152385 L31.3646398,13.6252385 Z" id="路径" fill="#00BAC7"></path>
                <g id="编组" transform="translate(0.000000, 42.000000)" fill="#FFFFFF">
                    <path d="M0,1.97361237 L2.31485588,1.97361237 L2.31485588,16.2229299 L0,16.2229299 L0,1.97361237 Z M3.08913525,0 L5.74722838,0 L5.74722838,3.29208371 L6.79290466,3.29208371 L6.79290466,5.91264786 L5.74722838,5.91264786 L5.74722838,18 L3.08913525,18 L3.08913525,0 Z M8.04611973,1.7033667 L10.5126386,1.7033667 L10.5126386,0 L13.4261641,0 L13.4261641,1.7033667 L17.0421286,1.7033667 L17.0421286,8.65605096 L18,8.65605096 L18,10.5232029 L13.9370288,10.5232029 L17.5929047,18 L14.4,18 L11.9973392,13.11101 L9.61064302,18 L6.40177384,18 L10.0337029,10.5232029 L7.08026608,10.5232029 L7.08026608,8.65605096 L10.4966741,8.65605096 L10.4966741,3.57051865 L8.03015521,3.57051865 L8.03015521,1.7033667 L8.04611973,1.7033667 Z M13.4341463,8.65605096 L14.4079823,8.65605096 L14.4079823,3.57051865 L13.4341463,3.57051865 L13.4341463,8.65605096 Z" id="形状"></path>
                    <path d="M23.5239787,16.1909959 L37,16.1909959 L37,18 L19,18 L19,16.1173261 L20.2548845,16.1173261 L20.2548845,5.56616644 L19,5.56616644 L19,3.92905866 L22.7246892,3.92905866 L22.7246892,17.1568895 L23.5159858,16.1909959 L23.5239787,16.1909959 Z M20.0870337,3.47885402 L19.1598579,0 L21.6856128,0 L22.6127886,3.47885402 L20.0870337,3.47885402 Z M27.7282416,10.6002729 L26.2175844,15.6261937 L23.7637655,15.6261937 L25.2744227,10.6002729 L27.7282416,10.6002729 Z M37,1.07230559 L37,2.86493861 L31.7087034,2.86493861 L31.7087034,3.61800819 L36.4964476,3.61800819 L36.4964476,10.0190996 L34.0106572,10.0190996 L34.0106572,9.59345157 L31.7087034,9.59345157 L31.7087034,15.7489768 L29.0470693,15.7489768 L29.0470693,9.59345157 L26.7611012,9.59345157 L26.7611012,10.0190996 L24.2673179,10.0190996 L24.2673179,3.61800819 L26.7611012,3.61800819 L26.7611012,4.6739427 L27.5523979,3.61800819 L29.0470693,3.61800819 L29.0470693,2.86493861 L23.8916519,2.86493861 L23.8916519,1.07230559 L29.0470693,1.07230559 L29.0470693,0 L31.7087034,0 L31.7087034,1.07230559 L37,1.07230559 Z M29.0470693,5.40245566 L26.7611012,5.40245566 L26.7611012,7.86630286 L29.0470693,7.86630286 L29.0470693,5.40245566 Z M31.7087034,5.40245566 L31.7087034,7.86630286 L34.0106572,7.86630286 L34.0106572,5.40245566 L31.7087034,5.40245566 Z M36.39254,15.6343793 L33.9227353,15.6343793 L32.4280639,10.6084584 L34.8978686,10.6084584 L36.39254,15.6343793 L36.39254,15.6343793 Z" id="形状"></path>
                    <polygon id="路径" points="47.8760551 5.81353147e-15 57 18 53.5135495 18 48.6357175 8.37 42.4864505 18 39 18 47.1083963 5.35909091 44.3976011 0 47.8840515 0"></polygon>
                    <path d="M58.0083179,1 L61.2273567,1 L61.2273567,2.0625 L61.9926063,1 L76,1 L76,18 L72.8890943,18 L72.8890943,17.1550197 L61.2190388,17.1550197 L61.2190388,18 L58,18 L58,1 L58.0083179,1 Z M61.2273567,15.1471457 L72.8974122,15.1471457 L72.8974122,2.94094488 L61.2273567,2.94094488 L61.2273567,15.1471457 Z" id="形状"></path>
                </g>
            </g>
        </g>
    </g>
</svg>