<?xml version="1.0" encoding="UTF-8"?>
<svg width="50px" height="50px" viewBox="0 0 50 50" version="1.1" xmlns="http://www.w3.org/2000/svg" xmlns:xlink="http://www.w3.org/1999/xlink">
    <title>研招网</title>
    <g id="页面-1" stroke="none" stroke-width="1" fill="none" fill-rule="evenodd">
        <g id="图标PC" transform="translate(-300.000000, -120.000000)">
            <g id="研招网" transform="translate(300.000000, 120.000000)">
                <rect id="矩形备份-2" x="0" y="0" width="50" height="50"></rect>
                <circle id="椭圆形" stroke="#E6E6E6" fill="#FFFFFF" cx="25" cy="25" r="24.5"></circle>
                <g id="编组" transform="translate(5.000000, 16.000000)">
                    <polygon id="Fill-1" fill="#666666" points="9.78561006 6 7 12.9303529 20 18 20 6"></polygon>
                    <polygon id="Fill-2" fill="#3F3F3F" points="30.2142341 6 20 6 20 18 33 12.9303529"></polygon>
                    <polygon id="Fill-3" fill="#0060BC" points="33 20 35 20 35 13 33 13"></polygon>
                    <polygon id="Fill-4" fill="#000000" points="20 0 0 4.99964286 20 10 40 4.99964286"></polygon>
                    <polygon id="Fill-5" fill="#0060BC" points="33 11 35 11 35 6 33 6"></polygon>
                    <polygon id="Fill-6" fill="#0060BC" points="20 3 20 4.74539108 34.7903659 7 35 5.2690084"></polygon>
                    <polygon id="Fill-7" fill="#F6BC00" points="33 13 35 13 35 11 33 11"></polygon>
                </g>
            </g>
        </g>
    </g>
</svg>