<?xml version="1.0" encoding="UTF-8"?>
<svg width="52px" height="52px" viewBox="0 0 52 52" version="1.1" xmlns="http://www.w3.org/2000/svg" xmlns:xlink="http://www.w3.org/1999/xlink">
    <title>远程面试系统</title>
    <defs>
        <linearGradient x1="50%" y1="0%" x2="50%" y2="100%" id="linearGradient-1">
            <stop stop-color="#20BFCA" offset="0%"></stop>
            <stop stop-color="#468EED" offset="100%"></stop>
        </linearGradient>
    </defs>
    <g id="页面-1" stroke="none" stroke-width="1" fill="none" fill-rule="evenodd">
        <g id="图标PC" transform="translate(-154.000000, -557.000000)">
            <g id="远程面试系统" transform="translate(154.000000, 557.000000)">
                <rect id="矩形备份-3" x="0" y="0" width="52" height="52"></rect>
                <g id="编组-10备份" transform="translate(1.000000, 10.000000)" fill="url(#linearGradient-1)" fill-rule="nonzero">
                    <g id="编组">
                        <path d="M18.6879828,16.0603774 C23.3008393,16.1688102 27.026608,19.5844436 26.9674688,23.8133231 L26.9674688,31.1867539 C26.9674688,31.6204852 26.5534945,32 26.080381,32 L0.887087789,32 C0.413974313,32 0,31.6204852 0,31.1867539 L0,23.8133231 C0,19.5844436 3.72576872,16.1688102 8.33862522,16.0603774 L10.2310792,26.7952253 C10.2902184,27.1747401 10.7041927,27.4458221 11.118167,27.4458221 L12.3600899,27.4458221 L12.3600899,17.1447054 C12.3600899,16.548325 12.8923426,16.0603774 13.5428736,16.0603774 C14.1934046,16.0603774 14.7256573,16.548325 14.7256573,17.1447054 L14.7256573,27.4458221 L15.908441,27.4458221 C16.3815545,27.4458221 16.7363896,27.1747401 16.7955288,26.7952253 Z M29.2052222,27.7026522 L41.1044074,27.7033248 C42.0754578,27.7033248 42.8623435,28.5092681 42.8623435,29.5038363 C42.8623435,30.4486762 42.1521792,31.2232819 41.2486084,31.2983804 L41.1044074,31.3043478 L29.2052222,31.3036522 L29.2052222,27.7026522 Z M39.9728669,0.695652174 C43.1156466,0.695652174 44.2523967,1.03817932 45.4058637,1.67185454 C46.5426138,2.28840341 47.462044,3.23035306 48.0638529,4.39494536 C48.6656617,5.55953766 49,6.72412996 49,9.94388514 L49,16.6916699 C49,19.9114251 48.6823787,21.0760174 48.0638529,22.2577361 C47.462044,23.4223284 46.5426138,24.364278 45.4058637,24.9808269 C44.2523967,25.6145021 43.1156466,25.9399029 39.9728669,25.9399029 L29.2052222,25.9396522 L29.2058399,22.3617559 L40.9795504,22.3619776 C42.5531144,22.3619776 43.1222758,22.1901979 43.6914372,21.8809945 C44.2605987,21.5717911 44.7293198,21.090808 45.0306406,20.5067571 C45.3319614,19.9227062 45.4993618,19.3386553 45.4993618,17.7239263 L45.4993618,8.91162879 C45.4993618,7.29689981 45.3319614,6.71284891 45.0306406,6.128798 C44.7293198,5.54474709 44.2605987,5.06376399 43.6914372,4.75456057 C43.1222758,4.44535715 42.5531144,4.27357747 40.9795504,4.27357747 L23.5699066,4.27357747 C23.2869794,4.27357747 23.0365227,4.27913079 22.8126983,4.29003772 C22.4591287,2.94712069 21.8366395,1.84822531 21.0972222,0.94113178 C21.9182676,0.778306425 22.9926555,0.695652174 24.57659,0.695652174 L39.9728669,0.695652174 Z M31.6128699,14.5595908 C34.2251887,14.5595908 36.3424932,16.6831706 36.3424932,19.3037027 L36.3424932,19.6093179 C36.3424932,20.6087013 34.3591044,20.6777597 31.8640286,20.6811752 L29.0013956,20.6809523 C28.5589514,18.8728196 27.3985887,17.2028936 25.5203073,15.6711745 C26.3410048,14.9773951 27.4023327,14.5595908 28.5610523,14.5595908 L31.6128699,14.5595908 Z M42.8431728,9.47924529 C43.6091294,9.47924529 44.2361111,9.9958576 44.2361111,10.6268712 L44.2361111,14.2064833 C44.2189718,14.8381538 43.5919901,15.3542188 42.8260335,15.3542188 L41.2585129,15.3542188 C41.2122592,15.3531957 41.1677829,15.3689187 41.1368102,15.3972424 L40.2657587,16.1149602 C39.8657075,16.4446988 39.2036499,16.4446988 38.7855293,16.1149602 L37.9151421,15.3972424 C37.8840174,15.3687706 37.8392583,15.3530336 37.7927751,15.3542188 L36.2252545,15.3542188 C35.4571721,15.3520293 34.8353721,14.839358 34.8329805,14.2064833 L34.8329805,10.6268712 C34.8329805,9.9958576 35.4592979,9.47924529 36.2259188,9.47924529 L42.8431728,9.47924529 Z M13.5428736,0 C17.4460599,0 20.6987151,3.19999999 20.6987151,7.24528301 C20.6987151,11.290566 17.4460599,14.5509434 13.5428736,14.5509434 C9.63968732,14.5509434 6.38703208,11.3509434 6.38703208,7.30566038 C6.38703208,3.26037736 9.63968732,0 13.5428736,0 Z M37.4765283,12.0150943 C37.1847872,12.0150943 36.9621221,12.2632273 36.9619912,12.5863232 L36.9619912,12.9675298 C36.9619912,13.2907709 37.1847872,13.5389039 37.4765283,13.5389039 C37.7676153,13.5389039 37.9910654,13.2907709 37.9910654,12.9675298 L37.9910654,12.5863232 C37.9910654,12.263082 37.7676153,12.0150943 37.4765283,12.0150943 Z M39.5345458,12.0150943 C39.2434589,12.0150943 39.0200087,12.2632273 39.0200087,12.5863232 L39.0200087,12.9675298 C39.0200087,13.2907709 39.2434589,13.5389039 39.5345458,13.5389039 C39.8256328,13.5389039 40.0489521,13.2907709 40.0489521,12.9675298 L40.0489521,12.5863232 C40.0489521,12.263082 39.8256328,12.0150943 39.5345458,12.0150943 Z M41.5925633,12.0150943 C41.3008222,12.0150943 41.0780263,12.2632273 41.0780263,12.5863232 L41.0780263,12.9675298 C41.0780263,13.2907709 41.3008222,13.5389039 41.5925633,13.5389039 C41.8837811,13.5389039 42.1071004,13.2907709 42.1071004,12.9675298 L42.1071004,12.5863232 C42.1071004,12.263082 41.8836503,12.0150943 41.5925633,12.0150943 Z M29.9107489,5.91713555 C31.9058329,5.91713555 33.5230985,7.56971807 33.5230985,9.60792074 C33.5230985,11.5808847 32.0084897,13.1922127 30.1026005,13.2941163 L29.9107489,13.2992327 C27.915665,13.2992327 26.2983994,11.6466502 26.2983994,9.60792074 C26.2983994,7.56919127 27.9161721,5.91713555 29.9107489,5.91713555 Z" id="形状结合"></path>
                    </g>
                </g>
            </g>
        </g>
    </g>
</svg>