<?xml version="1.0" encoding="UTF-8"?>
<svg width="52px" height="52px" viewBox="0 0 52 52" version="1.1" xmlns="http://www.w3.org/2000/svg" xmlns:xlink="http://www.w3.org/1999/xlink">
    <title>在线考试系统</title>
    <defs>
        <linearGradient x1="50%" y1="0%" x2="50%" y2="100%" id="linearGradient-1">
            <stop stop-color="#20BFCA" offset="0%"></stop>
            <stop stop-color="#468EED" offset="100%"></stop>
        </linearGradient>
    </defs>
    <g id="页面-1" stroke="none" stroke-width="1" fill="none" fill-rule="evenodd">
        <g id="图标PC" transform="translate(-84.000000, -557.000000)">
            <g id="在线考试系统" transform="translate(84.000000, 557.000000)">
                <rect id="矩形备份" x="0" y="0" width="52" height="52"></rect>
                <g id="编组-9" transform="translate(5.000000, 7.000000)" fill="url(#linearGradient-1)" fill-rule="nonzero">
                    <g id="资源-2">
                        <path d="M11.9444444,33.7777778 L31.0555556,33.7777778 C32.1110331,33.7777778 32.9666667,34.7229544 32.9666667,35.8888889 C32.9666667,37.0548234 32.1110331,38 31.0555556,38 L11.9444444,38 C10.8889669,38 10.0333333,37.0548234 10.0333333,35.8888889 C10.0333333,34.7229544 10.8889669,33.7777778 11.9444444,33.7777778 Z M31.3946421,0 C35.4307277,0 36.8942923,0.420036125 38.3686026,1.18240169 C39.8261029,1.93675747 41.0180926,3.10159235 41.790034,4.52588925 C42.5809176,5.96661316 43,7.39683616 43,11.3409754 L43,19.6219876 C43,23.5661268 42.5809176,24.9963498 41.790034,26.4370737 C41.0180926,27.8613706 39.8261029,29.0262055 38.3686026,29.7805613 C36.8942923,30.5429268 35.4307277,30.962963 31.3946421,30.962963 L11.6053579,30.962963 C7.56927229,30.962963 6.10570772,30.5513276 4.63139744,29.7805613 C3.17389712,29.0262055 1.98190744,27.8613706 1.20996601,26.4370737 C0.429828069,24.9921494 0,23.5661268 0,19.6219876 L0,11.3409754 C0,7.39683616 0.429828069,5.96661316 1.20996601,4.52588925 C1.98190744,3.10159235 3.17389712,1.93675747 4.63139744,1.18240169 C6.10570772,0.420036125 7.56927229,0 11.6053579,0 Z M33.2042183,3.89793524 L9.79578169,3.89793524 C7.68102759,3.89793524 6.91378449,4.11215366 6.1422431,4.51538835 C5.37819192,4.91061178 4.75306314,5.52076785 4.34771092,6.26693899 C3.93077769,7.02090383 3.71586365,7.77066831 3.71586365,9.83724605 L3.71586365,21.1173162 C3.71586365,23.1838939 3.93507597,23.9336584 4.34771092,24.6876233 C4.75293357,25.434417 5.37804004,26.0452828 6.1422431,26.4412741 C6.91378449,26.8487091 7.68102759,27.0587272 9.79578169,27.0587272 L33.2063675,27.0587272 C35.3189724,27.0587272 36.0862155,26.8445088 36.859906,26.4412741 C37.623472,26.0451562 38.2478521,25.4342685 38.6522891,24.6876233 C39.0692223,23.9336584 39.2841363,23.1838939 39.2841363,21.1173162 L39.2819872,9.83724605 C39.2819872,7.7727685 39.0627749,7.02300401 38.6501399,6.26693899 C38.2455734,5.52091628 37.621171,4.9107384 36.8577569,4.51538835 C36.0862155,4.1079533 35.3189724,3.89793524 33.2042183,3.89793524 Z M24.8788845,5.62962963 C26.3179146,5.6315363 27.6197834,6.21028258 28.5628286,7.14288085 C29.4020459,7.97280141 29.9574304,9.08257592 30.0762837,10.3235899 L30.095015,10.591476 L30.1,14.3245147 C30.1,14.7741599 29.9170405,15.1820624 29.6187866,15.4770123 C29.3266239,15.7659385 28.923367,15.9460033 28.4771794,15.9460033 C28.0309917,15.9460033 27.6277348,15.7659385 27.3355721,15.4770123 C27.1070203,15.2509923 26.9462125,14.958617 26.8834964,14.6319963 L26.8604531,14.4659809 L26.8543589,10.8106405 C26.8539211,10.2968523 26.6452963,9.80520248 26.2772891,9.44312407 C25.9804923,9.15110885 25.5999304,8.96213526 25.1913226,8.89746174 L25.0146504,8.8774167 L18.1098727,8.87259819 C17.5643301,8.87581483 17.070537,9.09522569 16.7134724,9.45015028 C16.4352978,9.72665764 16.2403347,10.0856905 16.1711989,10.48702 L16.1493973,10.6614907 L16.143529,20.1544066 C16.1440501,20.7597275 16.2153159,21.3149873 16.4848499,21.6899193 C16.6296114,21.8912881 16.839739,22.0198215 17.1213931,22.0693216 L17.2682093,22.0874568 L18.2909448,22.0925437 C18.5835105,22.0815566 18.8674988,22.1498069 19.1162367,22.2824889 C19.3706332,22.4181893 19.5880965,22.6211597 19.741588,22.8755003 C19.8972338,23.1334106 19.9746983,23.4232164 19.9746983,23.7128893 C19.9746983,24.0025621 19.8972338,24.2923679 19.741588,24.5502782 C19.5880965,24.8046188 19.3706332,25.0075892 19.1162367,25.1432896 C18.9503907,25.2317553 18.7688764,25.2915767 18.5759435,25.3184635 L18.4291693,25.3323863 L17.4030502,25.3333333 C15.9881209,25.3320823 14.8940189,24.7790265 14.1339439,23.8928663 C13.4323961,23.074942 13.0153149,21.9597912 12.9206292,20.7003895 L12.9045189,20.4072673 L12.9,10.8097211 C12.9012929,9.37837623 13.4869407,8.08178402 14.4357271,7.14308815 C15.2693283,6.31835236 16.3835882,5.77029796 17.6304231,5.65303198 L17.8995773,5.63455342 L24.8788845,5.62962963 Z M26.886783,16.8897574 C27.3449079,16.8753757 27.7900858,17.0400996 28.1243318,17.3476729 C28.8157491,17.9871297 28.8506874,19.0541434 28.2025279,19.7357814 C28.1764625,19.7625594 28.1503971,19.7881202 28.1243318,19.8124638 L24.261071,23.6173706 C24.0602958,23.8148276 23.7876625,23.9258425 23.5033134,23.9259259 L22.5724072,23.9259259 C22.2876651,23.9259259 22.0146124,23.8148779 21.8134441,23.6172613 C21.6122757,23.4196447 21.4995089,23.1516856 21.5000016,22.872456 L21.5000016,21.9595705 C21.4995931,21.6800932 21.6128374,21.4119911 21.8146495,21.2146559 L25.6816339,17.4243553 C25.9951352,17.0964476 26.4286581,16.904139 26.886783,16.8897574 Z M21.5012781,16.8888889 C21.8979727,16.8888889 22.257644,17.0472785 22.5177927,17.3049214 C22.7739753,17.5586364 22.9333333,17.9089014 22.9333333,18.2962963 C22.9333333,18.6836912 22.7739753,19.0339562 22.5177927,19.2876712 C22.2901626,19.5131088 21.9863354,19.6625555 21.648181,19.6963947 L21.5012781,19.7037037 L20.0653886,19.7037037 C19.668694,19.7037037 19.3090227,19.5453141 19.0488739,19.2876712 C18.7926913,19.0339562 18.6333333,18.6836912 18.6333333,18.2962963 C18.6333333,17.9089014 18.7926913,17.5586364 19.0488739,17.3049214 C19.2765041,17.0794838 19.5803312,16.9300371 19.9184857,16.8961979 L20.0653886,16.8888889 L21.5012781,16.8888889 Z M24.2177667,11.2592593 C24.6560622,11.2592593 25.0534518,11.4176488 25.3408821,11.6752918 C25.6239303,11.9290067 25.8,12.2792718 25.8,12.6666667 C25.8,13.0540616 25.6239303,13.4043266 25.3408821,13.6580416 C25.1218837,13.8543444 24.8390396,13.9930087 24.5183485,14.0481131 L24.3549694,14.068582 L20.2155667,14.0740741 C19.7772712,14.0740741 19.3798815,13.9156845 19.0924512,13.6580416 C18.809403,13.4043266 18.6333333,13.0540616 18.6333333,12.6666667 C18.6333333,12.2792718 18.809403,11.9290067 19.0924512,11.6752918 C19.3114496,11.4789889 19.5942937,11.3403246 19.9149848,11.2852202 L20.0783639,11.2647513 L24.2177667,11.2592593 Z" id="形状结合"></path>
                    </g>
                </g>
            </g>
        </g>
    </g>
</svg>