<?xml version="1.0" encoding="UTF-8"?>
<svg width="50px" height="50px" viewBox="0 0 50 50" version="1.1" xmlns="http://www.w3.org/2000/svg" xmlns:xlink="http://www.w3.org/1999/xlink">
    <title>学籍学历学位</title>
    <g id="页面-1" stroke="none" stroke-width="1" fill="none" fill-rule="evenodd">
        <g id="图标PC" transform="translate(-54.000000, -120.000000)">
            <g id="学籍学历学位" transform="translate(54.000000, 120.000000)">
                <rect id="矩形" x="0" y="0" width="50" height="50"></rect>
                <circle id="椭圆形" stroke="#E6E6E6" fill="#FFFFFF" cx="25" cy="25" r="24.5"></circle>
                <path d="M27.7392027,11 C28.3794297,11 28.9919712,11.2479379 29.4453212,11.6928675 L36.2940199,18.4177584 C36.7473699,18.862688 37,19.4638525 37,20.0921883 L37.000651,23.9364181 C35.7954117,23.3370672 34.4369335,23 33,23 C28.030888,23 24,27.030888 24,32 C24,34.826883 25.3045443,37.350122 27.3442297,39.0003139 L14.6197398,39 C13.1731728,39 12,37.8486172 12,36.428918 L12,13.571082 C12,12.1513828 13.1731728,11 14.6197398,11 L27.7392027,11 Z M33,25 C36.8648649,25 40,28.1351351 40,32 C40,35.8648649 36.8648649,39 33,39 C29.1351351,39 26,35.8648649 26,32 C26,28.1351351 29.1351351,25 33,25 Z M32.8141892,28.0135135 L31.652027,30.3682432 C31.6216216,30.4324324 31.5608108,30.4763514 31.4898649,30.4864865 L28.8918919,30.8648649 C28.7128378,30.8918919 28.6418919,31.1114865 28.7702703,31.2364865 L30.6486486,33.0675676 C30.6993243,33.1182432 30.7195946,33.1891892 30.7094595,33.2601351 L30.2668919,35.847973 C30.2364865,36.027027 30.4222973,36.1621622 30.5810811,36.0777027 L32.902027,34.8581081 C32.9662162,34.8243243 33.0405405,34.8243243 33.1047297,34.8581081 L35.4256757,36.0777027 C35.5844595,36.1587838 35.7702703,36.0236486 35.7398649,35.847973 L35.2972973,33.2601351 C35.2837838,33.1891892 35.3074324,33.1182432 35.3581081,33.0675676 L37.2364865,31.2364865 C37.3648649,31.1114865 37.2939189,30.8952703 37.125,30.8648649 L34.527027,30.4864865 C34.4560811,30.4763514 34.3952703,30.4324324 34.3648649,30.3682432 L33.2027027,28.0135135 C33.125,27.8513514 32.8952703,27.8513514 32.8141892,28.0135135 Z M19,31 L17,31 C16.4477153,31 16,31.4477153 16,32 C16,32.5522847 16.4477153,33 17,33 L19,33 C19.5522847,33 20,32.5522847 20,32 C20,31.4477153 19.5522847,31 19,31 Z M22,24 L17,24 C16.4477153,24 16,24.4477153 16,25 C16,25.5522847 16.4477153,26 17,26 L22,26 C22.5522847,26 23,25.5522847 23,25 C23,24.4477153 22.5522847,24 22,24 Z M30,17 L17,17 C16.4477153,17 16,17.4477153 16,18 C16,18.5522847 16.4477153,19 17,19 L30,19 C30.5522847,19 31,18.5522847 31,18 C31,17.4477153 30.5522847,17 30,17 Z" fill="#26B887" fill-rule="nonzero"></path>
            </g>
        </g>
    </g>
</svg>