<?xml version="1.0" encoding="UTF-8"?>
<svg width="50px" height="50px" viewBox="0 0 50 50" version="1.1" xmlns="http://www.w3.org/2000/svg" xmlns:xlink="http://www.w3.org/1999/xlink">
    <title>征兵网logo PC</title>
    <g id="页面-1" stroke="none" stroke-width="1" fill="none" fill-rule="evenodd">
        <g id="征兵网logo" transform="translate(-116.000000, -71.000000)">
            <g id="征兵网logo-PC" transform="translate(116.000000, 71.000000)">
                <circle id="椭圆形" stroke="#E6E6E6" fill="#FFFFFF" cx="25" cy="25" r="24.5"></circle>
                <g id="全国征兵网Logo" transform="translate(5.000000, 10.000000)" fill-rule="nonzero">
                    <g id="编组" fill="#C68F12">
                        <g id="_橄榄枝-左">
                            <path d="M7.99595824,29.7414112 C7.99595824,29.7414112 11.1687437,33.7535487 15.4530145,30.3727628 C19.7372853,26.9987657 23.0784776,31.2824522 24.4661502,33 L25.2610307,32.2192964 C25.2610307,32.2192964 22.7416639,29.0964822 18.5112833,28.3700885 C16.7261704,28.0645958 15.6079488,28.580539 13.8901987,29.4834396 C12.4621085,30.2301995 10.6298417,30.8819173 7.98922196,29.7346225 L7.99595824,29.7414112 Z" id="路径"></path>
                            <path d="M4.52004042,26.4217239 C4.52004042,26.4217239 6.19737285,31.0448467 14.9612664,28.6009052 C14.9612664,28.6009052 10.9262378,26.2927381 8.85820141,23.6926558 C8.85820141,23.6926558 9.28258673,26.4149352 11.7076457,28.057807 C11.7076457,28.057807 9.25564163,28.5533841 4.51330414,26.4285127 L4.52004042,26.4217239 Z" id="路径"></path>
                            <path d="M6.15021893,19.5718988 C6.15021893,19.5718988 8.08352981,22.2195022 8.58875042,24.5208805 C8.97271809,26.2723719 9.49141125,26.6253857 9.86864264,27.2160049 C9.86864264,27.2160049 3.79925901,27.1073853 1.58976086,21.8053898 C1.58976086,21.8053898 5.98854833,25.0504012 7.73997979,25.6070767 C7.73997979,25.6070767 6.44661502,23.9506274 6.14348265,19.5651101 L6.15021893,19.5718988 Z" id="路径"></path>
                            <path d="M4.78949141,15.6751697 C4.78949141,15.6751697 5.72583361,16.9310841 5.61131694,20.8210245 C5.55742674,22.6132483 5.88076794,23.2106562 6.04243853,23.8963176 C6.04243853,23.8963176 0.390703941,21.3709113 0,15.9874511 C0,15.9874511 2.81576288,20.1896729 4.2842708,21.2962353 C4.2842708,21.2962353 3.79252273,17.0600699 4.78949141,15.6819584 L4.78949141,15.6751697 Z" id="路径"></path>
                            <path d="M4.77601886,11.3168072 C4.77601886,11.3168072 5.01852476,12.341905 3.75884136,15.9738737 C3.19299427,17.6167455 3.38160997,18.3295618 3.42876389,19.0016458 C3.42876389,19.0016458 -0.842034355,16.4015635 0.538901987,9.91832956 C0.538901987,9.91832956 1.64365106,14.4124666 2.63388346,15.967085 C2.63388346,15.967085 3.41529134,12.3147501 4.77601886,11.3168072 Z" id="路径"></path>
                            <path d="M6.10306501,6.91092368 C6.10306501,6.91092368 5.82014146,8.268669 3.67800606,11.3100185 C2.68103739,12.7288624 2.59346581,13.1022423 2.37790502,13.7403826 C2.37790502,13.7403826 -0.532165712,8.35013372 2.88312563,4.42624974 C2.88312563,4.42624974 2.034355,8.8049784 2.59346581,10.8415964 C2.59346581,10.8415964 4.04850118,8.22114791 6.09632873,6.9177124 L6.10306501,6.91092368 Z" id="路径"></path>
                            <path d="M7.76692489,3.62518 C7.76692489,3.62518 7.4435837,5.53960091 4.78275514,7.14174038 C3.75884136,7.7595145 3.48939037,8.33655626 3.19299427,8.8049784 C3.19299427,8.8049784 2.15560795,3.67270109 5.61131694,1.61571693 C5.61131694,1.61571693 4.00134725,4.53486937 4.23711687,6.34745937 C4.23711687,6.34745937 6.46008757,4.61633409 7.76692489,3.61839128 L7.76692489,3.62518 Z" id="路径"></path>
                            <path d="M5.1128326,4.62991154 C5.1128326,4.62991154 5.4361738,1.01152026 9.63287302,0 C9.63287302,0 7.62546312,3.27216622 5.1128326,4.62991154 Z" id="路径"></path>
                        </g>
                        <g id="_橄榄枝-左-2" transform="translate(14.738969, 0.000000)">
                            <path d="M17.2650724,29.7414112 C17.2650724,29.7414112 14.092287,33.7535487 9.80801617,30.3727628 C5.52374537,26.9987657 2.18255305,31.2824522 0.794880431,33 L0,32.2192964 C0,32.2192964 2.51936679,29.0964822 6.74974739,28.3700885 C8.53486022,28.0645958 9.65308185,28.580539 11.3708319,29.4834396 C12.7989222,30.2301995 14.631189,30.8819173 17.2718087,29.7346225 L17.2650724,29.7414112 Z" id="路径"></path>
                            <path d="M20.7409902,26.4217239 C20.7409902,26.4217239 19.0636578,31.0448467 10.2997642,28.6009052 C10.2997642,28.6009052 14.3347929,26.2927381 16.4028292,23.6926558 C16.4028292,23.6926558 15.9784439,26.4149352 13.553385,28.057807 C13.553385,28.057807 16.005389,28.5533841 20.7477265,26.4285127 L20.7409902,26.4217239 Z" id="路径"></path>
                            <path d="M19.1108117,19.5718988 C19.1108117,19.5718988 17.1775008,22.2195022 16.6722802,24.5208805 C16.2883126,26.2723719 15.7696194,26.6253857 15.392388,27.2160049 C15.392388,27.2160049 21.4617716,27.1073853 23.6712698,21.8053898 C23.6712698,21.8053898 19.2724823,25.0504012 17.5210509,25.6070767 C17.5210509,25.6070767 18.8144156,23.9506274 19.117548,19.5651101 L19.1108117,19.5718988 Z" id="路径"></path>
                            <path d="M20.4715392,15.6751697 C20.4715392,15.6751697 19.535197,16.9310841 19.6497137,20.8210245 C19.7036039,22.6132483 19.3802627,23.2106562 19.2185921,23.8963176 C19.2185921,23.8963176 24.8703267,21.3709113 25.2610307,15.9874511 C25.2610307,15.9874511 22.4452678,20.1896729 20.9767599,21.2962353 C20.9767599,21.2962353 21.4685079,17.0600699 20.4715392,15.6819584 L20.4715392,15.6751697 Z" id="路径"></path>
                            <path d="M20.4850118,11.3168072 C20.4850118,11.3168072 20.2425059,12.341905 21.5021893,15.9738737 C22.0680364,17.6167455 21.8794207,18.3295618 21.8322668,19.0016458 C21.8322668,19.0016458 26.103065,16.4015635 24.7221287,9.91832956 C24.7221287,9.91832956 23.6173796,14.4124666 22.6271472,15.967085 C22.6271472,15.967085 21.8457393,12.3147501 20.4850118,11.3168072 Z" id="路径"></path>
                            <path d="M19.1579656,6.91092368 C19.1579656,6.91092368 19.4408892,8.268669 21.5830246,11.3100185 C22.5799933,12.7288624 22.6675648,13.1022423 22.8831256,13.7403826 C22.8831256,13.7403826 25.7931964,8.35013372 22.377905,4.42624974 C22.377905,4.42624974 23.2266756,8.8049784 22.6675648,10.8415964 C22.6675648,10.8415964 21.2125295,8.22114791 19.1647019,6.9177124 L19.1579656,6.91092368 Z" id="路径"></path>
                            <path d="M17.4941058,3.62518 C17.4941058,3.62518 17.817447,5.53960091 20.4782755,7.14174038 C21.5021893,7.7595145 21.7716403,8.33655626 22.0680364,8.8049784 C22.0680364,8.8049784 23.1054227,3.67270109 19.6497137,1.61571693 C19.6497137,1.61571693 21.2596834,4.53486937 21.0239138,6.34745937 C21.0239138,6.34745937 18.8009431,4.61633409 17.4941058,3.61839128 L17.4941058,3.62518 Z" id="路径"></path>
                            <path d="M20.148198,4.62991154 C20.148198,4.62991154 19.8248569,1.01152026 15.6281576,0 C15.6281576,0 17.6355675,3.27216622 20.148198,4.62991154 Z" id="路径"></path>
                        </g>
                    </g>
                    <polygon id="路径" fill="#BD211D" points="20 0 22.599013 8.02140078 31 8.02140078 24.2004935 12.9785992 26.7995065 21 20 16.0428016 13.2004935 21 15.7995065 12.9785992 9 8.02140078 17.400987 8.02140078"></polygon>
                    <g id="八一" transform="translate(17.000000, 8.700000)" fill="#ECD72A">
                        <path d="M0.466091245,0.564285714 L0.636251541,1.21428571 L3.88409371,1.21428571 C3.88409371,1.21428571 3.95807645,2.85714286 5.31935882,3.95714286 L6,3.19285714 C6,3.19285714 4.62392109,2.40714286 4.5351418,1.19285714 L4.97163995,0.785714286 L4.13563502,0 L3.62515413,0.564285714 L0.466091245,0.564285714 L0.466091245,0.564285714 Z" id="路径"></path>
                        <path d="M0.946979038,1.85 L1.99013564,1.85 C1.99013564,1.85 1.89395808,3.62142857 0,4.07857143 C0,4.07857143 1.09494451,2.35714286 0.946979038,1.85 Z" id="路径"></path>
                        <polygon id="路径" points="0.399506782 6 4.94204686 6 5.64488286 5.32857143 5.10480888 4.81428571 4.55733662 5.43571429 0.155363748 5.43571429"></polygon>
                    </g>
                    <g id="编组" transform="translate(10.000000, 22.000000)" fill="#C68F12">
                        <path d="M10,5 C12.5284281,5 14.90301,4.31593794 16.9765886,3.1100141 L3.02341137,3.1100141 C5.090301,4.32299013 7.47157191,5 10,5 Z" id="路径"></path>
                        <path d="M19.0033445,0.930888575 L18.0334448,0.930888575 L18.0334448,0 L15.4715719,0 L15.4715719,0.930888575 L13.5384615,0.930888575 L13.5384615,0 L10.9698997,0 L10.9698997,0.930888575 L9.0367893,0.930888575 L9.0367893,0 L6.46822742,0 L6.46822742,0.930888575 L4.53511706,0.930888575 L4.53511706,0 L1.97324415,0 L1.97324415,0.930888575 L1.00334448,0.930888575 L0,0 L0,0.754583921 C0.642140468,1.41748942 1.34448161,2.00282087 2.09364548,2.51763047 L17.9063545,2.51763047 C18.6555184,2.00282087 19.3578595,1.41748942 20,0.754583921 L20,0 L18.9966555,0.930888575 L19.0033445,0.930888575 Z" id="路径"></path>
                    </g>
                </g>
            </g>
        </g>
    </g>
</svg>