<?xml version="1.0" encoding="UTF-8"?>
<svg width="52px" height="52px" viewBox="0 0 52 52" version="1.1" xmlns="http://www.w3.org/2000/svg" xmlns:xlink="http://www.w3.org/1999/xlink">
    <title>电子成绩单验证</title>
    <defs>
        <linearGradient x1="50%" y1="0%" x2="50%" y2="100%" id="linearGradient-1">
            <stop stop-color="#20BFCA" offset="0%"></stop>
            <stop stop-color="#468EED" offset="100%"></stop>
        </linearGradient>
    </defs>
    <g id="页面-1" stroke="none" stroke-width="1" fill="none" fill-rule="evenodd">
        <g id="图标PC" transform="translate(-294.000000, -557.000000)">
            <g id="电子成绩单验证" transform="translate(294.000000, 557.000000)">
                <rect id="矩形备份-5" x="0" y="0" width="52" height="52"></rect>
                <g id="编组-18备份" transform="translate(10.000000, 9.000000)" fill="url(#linearGradient-1)" fill-rule="nonzero">
                    <g id="icon-kaoshijilu">
                        <path d="M1.34560092,0 L30.5554917,0.0617142857 C31.1972398,0.0617142857 31.7354802,0.596571429 31.7354802,1.23428571 L31.7975848,19.296 L31.9838988,19.4194286 C34.5094882,21.1062857 36,23.9245714 36,26.928 C35.9792984,31.9268571 31.8596895,36 26.8292122,36 C24.986774,36 23.2064405,35.4651429 21.7159287,34.4365714 L21.6124209,34.3748571 L1.34560092,34.3748571 C0.600345026,34.3748571 0,33.7782857 0,33.0377143 L0,1.33714286 C0,0.596571429 0.600345026,0 1.34560092,0 Z M26.8292122,20.7977143 L26.7671075,20.7977143 C25.1109833,20.8182857 23.5790684,21.4765714 22.440483,22.6285714 C21.3018976,23.7805714 20.6601495,25.3645714 20.6808511,26.9485714 C20.7015526,28.5942857 21.3640023,30.1165714 22.5232892,31.248 C23.6618746,32.3588571 25.2351926,32.9965714 26.8292122,32.9965714 L26.8913168,32.9965714 C28.5474411,32.976 30.079356,32.3177143 31.2179413,31.1657143 C32.3565267,30.0137143 32.9982749,28.4297143 32.9775733,26.8457143 C32.9568718,25.2 32.2944221,23.6777143 31.1351351,22.5462857 C29.9965497,21.4354286 28.4232317,20.7977143 26.8292122,20.7977143 Z M3.00172513,2.98285714 L3.00172513,31.392 L18.8591144,31.392 L18.5692927,30.7954286 C18.3829787,30.4045714 18.2173663,29.9931429 18.0724554,29.5405714 L17.9896492,29.2525714 L11.8412881,29.2525714 C11.013226,29.2525714 10.3507763,28.5942857 10.3507763,27.7714286 C10.3507763,26.9485714 11.013226,26.2902857 11.8412881,26.2902857 L17.6998275,26.2902857 L17.7412306,25.92 C17.7826337,25.488 17.8654399,25.056 17.9689477,24.624 L18.1138585,24.1097143 L11.8412881,24.1097143 C11.013226,24.1097143 10.3507763,23.4514286 10.3507763,22.6285714 C10.3507763,21.8057143 11.013226,21.1474286 11.8412881,21.1474286 L19.7699827,21.1474286 L19.8941921,21.0034286 C21.6331225,19.008 24.1587119,17.856 26.8085106,17.856 C27.2846463,17.856 27.7814836,17.8971429 28.2783209,17.9794286 L28.7544566,18.0617143 L28.7540697,17.1521175 C28.7511443,15.3608667 28.7320989,12.2449371 28.7130535,8.98971429 C28.7130535,7.09714286 28.6923519,5.184 28.6923519,3.49714286 L28.6923519,3.08571429 L3.00172513,2.98285714 Z M30.1508809,23.7735849 C30.3998347,23.7735849 30.6487886,23.857702 30.8402915,24.0469654 C31.070095,24.257258 31.2232974,24.5516677 31.2424477,24.888136 C31.261598,25.203575 31.1849968,25.5400432 30.9743436,25.7713651 C30.74454,26.0657749 30.4955862,26.3601846 30.2657827,26.6125358 C29.2891177,27.7270869 28.2550018,28.9047257 27.2017357,30.0823646 C26.8378801,30.4819207 26.5314754,30.5660377 26.3208222,30.5660377 C26.1293192,30.5660377 25.8229145,30.5029499 25.5356601,30.187511 L25.4973595,30.1454524 C24.8079489,29.3673696 24.0993881,28.5472282 23.4099775,27.7481161 L23.3908272,27.7270869 C23.0652722,27.3065015 23.0078213,26.8228284 23.2184746,26.3601846 C23.4099775,25.9395993 23.7929834,25.6872481 24.2334401,25.6872481 C24.5206945,25.6872481 24.8079489,25.8344529 25.0377525,26.0868041 L26.3399725,27.6009113 C26.7421286,27.1592967 27.1251345,26.7176821 27.5272907,26.2550383 C28.0251983,25.7082774 28.5231059,25.1194579 29.0210136,24.5516677 C29.0784645,24.4885799 29.1359154,24.4254921 29.1742159,24.3624043 C29.2316668,24.2993165 29.308268,24.2151995 29.3657189,24.1521117 C29.5763721,23.9207898 29.8636265,23.7735849 30.1508809,23.7735849 Z M7.47169811,26.490566 C8.22197174,26.490566 8.83018868,27.098783 8.83018868,27.8490566 C8.83018868,28.5993302 8.22197174,29.2075472 7.47169811,29.2075472 C6.72142449,29.2075472 6.11320755,28.5993302 6.11320755,27.8490566 C6.11320755,27.098783 6.72142449,26.490566 7.47169811,26.490566 Z M7.47169811,21.7358491 C8.22197174,21.7358491 8.83018868,22.344066 8.83018868,23.0943396 C8.83018868,23.8446132 8.22197174,24.4528302 7.47169811,24.4528302 C6.72142449,24.4528302 6.11320755,23.8446132 6.11320755,23.0943396 C6.11320755,22.344066 6.72142449,21.7358491 7.47169811,21.7358491 Z M16.1582847,6.81197137 C17.1254599,6.81197137 17.9206927,7.10474951 18.4365195,7.65126871 C18.9953318,8.1977879 19.1457813,8.88093689 18.9523462,9.85686402 L18.1356206,14.0338321 C17.9421855,15.0097593 17.5553155,15.6343526 16.7815754,16.2003904 C16.1152992,16.7078725 15.2340951,16.9811321 14.26692,16.9811321 C13.3212376,16.9811321 12.504512,16.6883539 11.9886852,16.1808718 C11.4298729,15.6343526 11.2794235,14.9512036 11.4728585,13.9752765 L12.2895842,9.75927131 C12.4830192,8.78334418 12.8698892,8.15875081 13.6436294,7.59271308 C14.3099056,7.08523097 15.2126024,6.81197137 16.1582847,6.81197137 Z M23.6162797,6.79245283 C24.561962,6.79245283 25.3786877,7.08523097 25.8945144,7.59271308 C26.4533268,8.17826936 26.6037762,8.82238126 26.4103412,9.79830839 L25.5936155,14.0143136 C25.4001805,14.9902407 25.0133104,15.6148341 24.2395703,16.1808718 C23.5732941,16.6883539 22.6920901,16.9616135 21.724915,16.9616135 C20.7577398,16.9616135 19.9410142,16.6688354 19.4466802,16.1418347 C18.8878679,15.5953155 18.7374184,14.9121666 18.9308535,13.9362394 L19.7475791,9.73975277 C19.9410142,8.76382563 20.3278842,8.13923227 21.1016243,7.57319453 C21.7679005,7.06571243 22.6705973,6.79245283 23.6162797,6.79245283 Z M10.8925534,6.870527 C11.0430029,6.870527 11.1719596,6.92908263 11.2364379,7.02667534 C11.322409,7.12426805 11.3439018,7.24137931 11.3009162,7.35849057 L9.53850821,16.5126871 C9.51701543,16.7078725 9.34507319,16.8640208 9.1086526,16.8640208 L7.34624457,16.8640208 C7.17430232,16.8640208 7.02385285,16.7859466 6.91638895,16.6688354 C6.80892504,16.5517241 6.76593948,16.3955758 6.80892504,16.258946 L8.46386917,7.20234223 C8.50685473,6.98763826 8.74327532,6.870527 8.95820313,6.870527 L10.8925534,6.870527 Z M15.835893,9.13467794 L15.8144002,9.13467794 C15.449023,9.13467794 15.1911096,9.36890046 15.1051385,9.75927131 L14.2454272,14.1119063 C14.2024417,14.3070917 14.2454272,14.4632401 14.3313983,14.5608328 C14.3958767,14.6193884 14.5033406,14.6584255 14.6322973,14.6584255 C14.9976746,14.6584255 15.2340951,14.424203 15.3200663,14.0338321 L16.1582847,9.68119714 C16.2012703,9.48601171 16.1797775,9.31034483 16.0938064,9.23227066 C16.029328,9.17371503 15.9433569,9.13467794 15.835893,9.13467794 Z M23.2509024,9.13467794 L23.2294096,9.13467794 C22.8640323,9.13467794 22.606119,9.36890046 22.5201479,9.75927131 L21.6819294,14.1119063 C21.6389438,14.3070917 21.6819294,14.4632401 21.7679005,14.5608328 C21.8323789,14.6193884 21.9398428,14.6584255 22.0687995,14.6584255 C22.4341767,14.6584255 22.6705973,14.424203 22.7565684,14.0338321 L23.5947869,9.68119714 C23.6377725,9.46649317 23.6162797,9.31034483 23.5303086,9.23227066 C23.4658302,9.17371503 23.3798591,9.13467794 23.2509024,9.13467794 Z" id="形状结合"></path>
                    </g>
                </g>
            </g>
        </g>
    </g>
</svg>