<?xml version="1.0" encoding="UTF-8"?>
<svg width="50px" height="50px" viewBox="0 0 50 50" version="1.1" xmlns="http://www.w3.org/2000/svg" xmlns:xlink="http://www.w3.org/1999/xlink">
    <title>阳光高考</title>
    <defs>
        <linearGradient x1="50%" y1="0%" x2="50%" y2="100%" id="linearGradient-1">
            <stop stop-color="#F38607" offset="0%"></stop>
            <stop stop-color="#DD6800" offset="100%"></stop>
        </linearGradient>
    </defs>
    <g id="页面-1" stroke="none" stroke-width="1" fill="none" fill-rule="evenodd">
        <g id="图标PC" transform="translate(-235.000000, -120.000000)">
            <g id="阳光高考" transform="translate(235.000000, 120.000000)">
                <rect id="矩形备份" x="0" y="0" width="50" height="50"></rect>
                <circle id="椭圆形" stroke="#E6E6E6" fill="#FFFFFF" cx="25" cy="25" r="24.5"></circle>
                <g id="编组" transform="translate(4.000000, 14.000000)" fill-rule="nonzero">
                    <path d="M3.45528455,12.0751546 C4.93821138,12.2848133 7,13.0766095 7,13.0766095 C7,13.0766095 5.27317073,14 3.89918699,14 C2.52520325,14 1.25691057,13.0030059 0.996747967,12.7732735 C0.678512913,12.5433731 0.344681532,12.3566204 0,12.2156705 C0,12.2156705 1.84390244,11.8454222 3.45528455,12.0751546 Z M3.29873773,10 C5.57316503,10 7,12 7,12 C7,12 6.10822814,11.8878695 5.61734455,11.8878695 L2.63113604,11.8878695 C1.57338862,11.8878695 0.253737635,10.6386716 0.0322312059,10.4214198 L0,10.3893986 C0,10.3893986 1.02431043,10 3.29873773,10 Z M0,6 C0,6 2.113497,7.17262241 3.52461211,7.88840063 L3.84835227,8.05058171 C3.95080926,8.10116207 4.04732928,8.14798435 4.13647059,8.19021424 C5.24862745,8.71569195 8,10.245802 8,10.245802 L7.43843137,11 C7.43843137,11 6.49411765,10.350029 3.81490196,9.04719166 C0.961568627,7.65749855 0,6 0,6 Z M7,5 C7,5 7.93096127,5.54517454 8.64871288,5.54517454 C9.17427097,5.52185849 9.69345983,5.42640542 10.1900072,5.26180698 C10.1900072,5.26180698 10.5903856,5.63911704 10.8003402,5.83932238 C11.1502644,6.16889117 10.9337996,6.65708419 10.9337996,6.65708419 L9.247653,8 L8.10836473,6.92967146 C7.6428841,6.48921971 7,5 7,5 Z M20.8663225,7.00181468 C21.2424599,6.99060163 21.6183944,7.03138688 21.9855319,7.12323804 C21.9855319,7.12323804 22.194451,8.01644823 21.0245041,8.48384499 C19.9827488,8.90080519 18.3305271,8.99160313 17.2074884,8.99941936 L16.8717644,8.99941289 C16.3459727,8.99575021 16,8.97619176 16,8.97619176 C16,8.97619176 18.4697221,8.43228165 19.1337863,8.09296158 C19.7978506,7.7536415 20.1351057,7.00181468 20.8663225,7.00181468 Z M18.515235,0 C18.515235,0 19.5301972,0.303095908 19.8398187,0.898679368 C20.1494401,1.49426283 20.0484406,3.39164321 19.1973956,4.36761204 C17.7352591,6.03580529 14.8554654,6.6951734 13.6041951,6.91065845 L13.3765572,6.94800441 C13.206458,6.97447299 13.0872366,6.98965767 13.0329958,6.99617394 L13,7 C13,7 14.5216154,5.88460706 15.081252,5.09504222 C15.6408886,4.30547738 16.0448866,3.7477809 16.0448866,3.46893267 C16.0448866,3.19008443 15.9604444,2.30807534 16.4505403,1.85797792 C16.9406363,1.40788049 17.9059266,1.11539294 18.2105808,0.836544707 C18.515235,0.557696471 18.515235,0 18.515235,0 Z" id="形状结合" fill="#F9D920"></path>
                    <path d="M37.4778555,9 L38.9044289,9.10727675 C38.8909721,9.16102961 38.8635006,9.20965601 38.8251748,9.24756174 C38.7617955,9.29585895 38.6869936,9.32443541 38.6091686,9.33008232 L38.466,10.189 L38.5718726,10.1899468 L39.1779332,9.47201771 C39.3442113,9.65191258 39.4887335,9.80210003 39.5990676,9.93248255 C39.6508062,9.99362237 39.7011779,10.051496 39.7490612,10.1072946 C40.0541887,9.80678339 40.3483892,9.4925024 40.6293706,9.16504116 L41.8057498,9.95558831 C41.7738607,9.99846015 41.7313463,10.0310381 41.6829837,10.0496618 C41.6107351,10.0704923 41.534564,10.0704923 41.4623155,10.0496618 C41.0189628,10.4812832 40.5485765,10.8804972 40.0543901,11.2445598 C39.9094714,11.3515248 39.7631034,11.4562052 39.6153348,11.5585691 L40.5439005,11.558138 L41.1981352,10.7807941 L41.4902875,11.0861202 C41.5752396,11.1752425 41.6638177,11.2709663 41.7560218,11.3732919 C41.8477078,11.473967 41.9300699,11.5696908 42,11.6604635 C41.9538317,11.7567015 41.8551418,11.811098 41.7544678,11.7957972 L39.2626556,11.7967331 C38.9406145,12.0086755 38.6122905,12.2098184 38.2781663,12.3998479 C37.9185263,12.6057855 37.5528734,12.7994512 37.1817714,12.9805661 L39.5975136,12.9791423 L40.2501943,12.2183026 C40.3589744,12.3305306 40.4553225,12.4312057 40.5423465,12.5186775 C40.6293706,12.6061493 40.7163947,12.7002228 40.8049728,12.8008979 C40.8935509,12.901573 40.974359,12.9956465 41.045843,13.0798174 C41.014763,13.1705901 40.9324009,13.2151512 40.8003108,13.2151512 L38.2234923,13.2150894 C38.1899502,13.2898012 38.1523357,13.3718479 38.1103341,13.4610625 C38.020202,13.6525103 37.9285159,13.843958 37.8352758,14.0354058 L37.715,14.281 L39.1126651,14.2813171 L39.7513598,13.7498846 L40.5532246,14.5750903 C40.5137821,14.6151574 40.4680211,14.6475574 40.4180264,14.6708142 C40.3518237,14.7010292 40.2815483,14.7199665 40.2097902,14.7269282 C40.1207238,15.0485816 40.0138292,15.3643612 39.8896659,15.6726141 C39.7962909,15.9119262 39.6746194,16.1376452 39.5275835,16.3443316 C39.4113858,16.5088843 39.2642752,16.6460135 39.0955711,16.747032 C38.9414723,16.8386872 38.7746844,16.9038597 38.6013986,16.9401302 C38.3800192,16.9834336 38.1551446,17.0033357 37.9300699,16.999545 C37.9549562,16.8602888 37.9669275,16.7187768 37.965812,16.5770396 C37.9682617,16.4630277 37.9312114,16.3520287 37.8616939,16.2651118 C37.7783874,16.1595923 37.6715418,16.0778908 37.5508936,16.0274525 C37.3922004,15.9523107 37.2258513,15.8969285 37.0551671,15.8624114 L37.0707071,15.7699883 L37.5198135,15.8029966 C37.6752137,15.8145495 37.8306138,15.8228015 37.972028,15.8294032 L38.2610723,15.8294032 C38.3131373,15.8298698 38.3651394,15.8254515 38.4164724,15.8161999 C38.4592914,15.8072136 38.5006483,15.791646 38.5392385,15.7699883 C38.6260732,15.7037799 38.6955986,15.6151734 38.7412587,15.5125241 C38.8253538,15.3456317 38.8990676,15.1730695 38.961927,14.9959453 C39.0152212,14.8510476 39.0670534,14.6921739 39.1174233,14.5193243 L37.655,14.518 L37.1903652,15.0124494 L36.2579643,14.4116996 C36.3453433,14.3351931 36.4401555,14.2688013 36.5407925,14.2136502 L36.59,14.187 C36.6278166,14.1113247 36.6674437,14.0288041 36.7086247,13.9380315 C36.7909868,13.7564862 36.8717949,13.5815426 36.9479409,13.4065989 L37.029,13.215 L36.6792868,13.2166251 C36.5323765,13.282992 36.3846724,13.3474224 36.2362082,13.4098998 C35.5152606,13.7117244 34.7759464,13.9615047 34.02331,14.1575362 L34,14.0552107 C34.6780576,13.7520206 35.3386269,13.4064806 35.978244,13.0204026 C36.6006373,12.6457813 37.2042363,12.2370062 37.7865919,11.7957397 L34.6635587,11.7957972 L34.6386946,11.558138 L37.053,11.558 L37.241,10.425 L35.4871795,10.4259556 L35.4638695,10.1899468 L37.28,10.189 L37.4778555,9 Z M17.0846325,9 L18,9.86622697 C17.9479828,9.90933238 17.8920666,9.94758853 17.8329621,9.9805093 C17.7528121,10.0229377 17.6666468,10.053092 17.5773942,10.0699477 L16.438196,16.4813522 C16.438196,16.50454 16.3830735,16.5442903 16.2878619,16.6039159 C16.1660494,16.6758749 16.035185,16.7315653 15.8986637,16.7695425 C15.716575,16.8199014 15.5280994,16.8438894 15.3390869,16.8407619 L15.1269488,16.8407619 L15.262,16.078 L13.483,16.078 L13.3830735,16.64201 C13.3830735,16.6817604 13.2778396,16.748011 13.0907572,16.8374494 C12.8597759,16.9369534 12.6090932,16.9833824 12.357461,16.9732632 L12.1436526,16.9732632 L13.352458,10.1685423 C13.3076502,10.1749007 13.2618443,10.1758149 13.2160356,10.1709799 C13.0723831,10.339919 12.9003341,10.5381188 12.6998886,10.7655793 C12.4994432,10.9908314 12.2923163,11.2160835 12.0835189,11.4413357 C11.8747216,11.6665878 11.6542316,11.866996 11.4454343,12.0475289 C11.7229799,12.19152 11.9631104,12.3973079 12.1469933,12.6487534 C12.3074688,12.8749944 12.4210246,13.1305881 12.481069,13.400698 C12.5357467,13.6472621 12.5425495,13.9018977 12.5011136,14.1509864 C12.4589267,14.4058856 12.3718541,14.651441 12.2438753,14.8764308 C12.1184345,15.0884721 11.9347962,15.260794 11.7143653,15.3733105 C11.4386099,15.5053306 11.1352038,15.5706078 10.8290646,15.563781 C10.8622918,15.3768496 10.8857086,15.1883336 10.8992205,14.9989944 C10.9149705,14.8616722 10.906492,14.7226795 10.8741648,14.5882405 C10.8524543,14.526436 10.8136773,14.4719183 10.7622494,14.4308953 C10.7202394,14.3979653 10.6737829,14.3713233 10.6243746,14.3516719 L10.2193764,16.6287599 C10.2193764,16.6569164 10.169265,16.7016356 10.0840757,16.7612612 C9.97618712,16.8325557 9.85864726,16.8883197 9.73496659,16.9268877 C9.56617395,16.9781177 9.39030648,17.0027099 9.21380846,16.9997634 L9,16.9997634 L10.3162584,9.59459939 L10.3981069,9.12256366 L11.5907572,9.5896306 L11.47049,9.5896306 L11.9498886,9.59459939 L12.6614699,9.00828133 L13.415,9.812 L13.4348552,9.70391293 L13.5200445,9.23022093 L14.7277283,9.70391293 L16.3446548,9.70391293 L17.0846325,9 Z M32.5260771,12.5892359 L33.4119426,13.4271992 C33.3769566,13.4674288 33.3360993,13.5011571 33.2910053,13.5270347 C33.2254766,13.5650105 33.1543939,13.5904783 33.0808768,13.6023205 L32.7301587,15.7692413 C32.6982769,15.9840691 32.6344622,16.191887 32.5411943,16.3846207 C32.4391633,16.568572 32.285584,16.7124827 32.1027967,16.7954191 C31.816859,16.9181573 31.5137189,16.9873378 31.2063492,17 C31.2230041,16.8473373 31.2320875,16.6938177 31.2335601,16.5401021 C31.2395735,16.4268279 31.2176609,16.3138593 31.170068,16.2127727 C31.1277169,16.1304457 31.0694483,16.0589877 30.9992441,16.0032819 C30.8826086,15.9253026 30.7524376,15.8740559 30.61678,15.8527103 L30.621,15.821 L30.5899382,15.8330177 C30.5304437,15.8532144 30.4703224,15.8712466 30.409675,15.8870799 C30.2881755,15.9212306 30.1633102,15.9393651 30.0377929,15.9410893 L29.8594104,15.9410893 L29.925,15.53 L29.004,15.53 L28.9674981,15.7577848 C28.9674981,15.7856078 28.9130763,15.8248873 28.8163265,15.8788967 C28.703272,15.9381401 28.5853489,15.9858103 28.4640967,16.021285 C28.3283807,16.0629919 28.1879402,16.0839259 28.0468632,16.0834846 L27.9077853,16.0834846 L28.2358277,14.0720382 L28.3053666,13.6448733 L29.2728647,14.0720382 L30.0861678,14.0720382 L30.6182918,13.5614043 L31.4270597,14.2978955 C31.3945359,14.3380964 31.3549723,14.3709167 31.3106576,14.3944577 C31.2514361,14.4287692 31.1877086,14.4530551 31.1216931,14.4664702 L30.9266818,15.6644959 C30.9266818,15.6868362 30.8720729,15.7185114 30.7740644,15.7625556 C30.8491948,15.7678658 30.9172259,15.7714852 30.9780801,15.7725146 L31.2592593,15.7856078 C31.3484505,15.7856078 31.4104308,15.793791 31.4633409,15.793791 C31.5064628,15.7985651 31.549403,15.7830688 31.5812547,15.7512382 C31.6052524,15.7204275 31.6209439,15.6830532 31.6266062,15.6432195 L31.989,13.419 L27.6780045,13.419016 L27.159486,16.6039314 C27.159486,16.6432109 27.0975057,16.6923103 26.994709,16.7545029 C26.8744311,16.8233689 26.7477463,16.8782307 26.61678,16.9181676 C26.4694583,16.964803 26.3167554,16.9884992 26.1632653,16.9885435 L26,16.9885435 L26.6198035,13.1833388 L26.6984127,12.6923447 L27.8049887,13.1833388 L32.027,13.183 L31.9501134,13.1751556 L32.5260771,12.5892359 Z M21.8434409,9 L23.4288113,9.12674897 C23.4119689,9.18488 23.3773947,9.23657358 23.3297257,9.27489712 C23.2516569,9.3261344 23.1614161,9.35675173 23.0677365,9.36378601 L22.526,12.381 L24.1845494,12.38107 L24.9839522,11.5711934 L25.3534241,11.8872428 L25.6893077,12.1835391 C25.8051875,12.2872428 25.9093114,12.3860082 26,12.4814815 C25.9613734,12.5720165 25.8706848,12.6164609 25.7262549,12.6164609 L23.394,12.616 L23.3803182,12.6973251 L23.3666729,12.7777778 L22.8913976,15.4246914 C22.8796417,15.490535 22.8913976,15.5382716 22.9182683,15.562963 C22.9822624,15.5957029 23.0547997,15.6088904 23.1265161,15.600823 L24.0065311,15.600823 C24.090502,15.600823 24.1610375,15.600823 24.2198171,15.5925926 C24.2681554,15.590214 24.3155328,15.5784648 24.3592088,15.5580247 C24.4026451,15.5336105 24.4417751,15.502483 24.4750886,15.4658436 C24.5413863,15.3818358 24.6014401,15.2932676 24.6547863,15.200823 C24.7253219,15.0855967 24.8059339,14.945679 24.8983019,14.782716 C24.9906699,14.6197531 25.0880761,14.4436214 25.1922,14.2526749 L25.2694533,14.2526749 L25.0746408,15.5251029 C25.1894917,15.5639488 25.2865155,15.6415445 25.3483859,15.7440329 C25.3853194,15.8409082 25.3917546,15.9464154 25.3668595,16.0469136 C25.3391626,16.2033634 25.256597,16.3454226 25.1334204,16.4485597 C24.9540173,16.5792491 24.7436579,16.6630825 24.5221123,16.6921811 C24.2395712,16.7383735 23.9541943,16.7651109 23.6680758,16.7722451 L22.5907819,16.7728395 C22.3417088,16.7832305 22.0925963,16.753196 21.8535174,16.6839506 C21.7036167,16.6390034 21.5880334,16.5213565 21.5478634,16.3728395 C21.5097708,16.1643691 21.5149113,15.9505137 21.5629782,15.7440329 L22.122,12.616 L21.375,12.616 L21.3211453,12.8204819 C21.2099303,13.2064364 21.0724896,13.5848211 20.9096846,13.9530864 C20.7020161,14.4214865 20.4277938,14.8587396 20.095167,15.2518519 C19.7378394,15.6605429 19.3132379,16.0077267 18.8389625,16.2790123 C18.2695696,16.6017073 17.6567528,16.8444077 17.0184736,17 L17,16.9160494 C17.4623001,16.673298 17.8897854,16.3716387 18.2713193,16.01893 C18.6048128,15.7028608 18.8924411,15.3433983 19.1261429,14.9506173 C19.3523355,14.569886 19.5348244,14.165778 19.6702743,13.745679 C19.7886527,13.3749179 19.885802,12.9980139 19.9612849,12.6167305 L17.8329912,12.6164609 L17.8128382,12.38107 L21.236,12.381 L21.8434409,9 Z M15.815,12.97 L14.037,12.97 L13.525,15.845 L15.303,15.845 L15.815,12.97 Z M30.123,14.307 L29.2033258,14.3077154 L29.042,15.296 L29.963,15.296 L30.123,14.307 Z M11.9935047,9.83046114 L11.427,9.831 L10.645,14.232 L10.9977728,14.2321434 C11.0655219,14.2341939 11.1327103,14.2193893 11.1932071,14.1890805 C11.2548292,14.1561897 11.305359,14.1060868 11.3385301,14.0449854 C11.3847978,13.9640987 11.4153912,13.875341 11.4287305,13.7832954 C11.4788746,13.4929024 11.4912249,13.197329 11.4654788,12.9038183 C11.4401442,12.6132136 11.3536516,12.3311024 11.2115813,12.0756854 C11.2800668,11.9100589 11.3535635,11.7311822 11.435412,11.5158676 C11.5172606,11.3005531 11.6024499,11.0786135 11.6742762,10.8533613 C11.7461024,10.6281092 11.8246102,10.3978883 11.8914254,10.1908551 C11.9298777,10.0717067 11.9639042,9.94652425 11.9935047,9.83046114 Z M31.6613757,10.4452281 L32.5442177,11.2733716 C32.506968,11.3098282 32.4664554,11.3421754 32.4232804,11.3699338 C32.3583238,11.409954 32.2870772,11.4365904 32.2131519,11.4484928 L32.021164,12.6596117 C32.021164,12.6759782 31.9622071,12.7038012 31.8442933,12.7430807 C31.7157315,12.7860426 31.5850069,12.8210148 31.4527589,12.8478262 C31.3213959,12.8769417 31.1877475,12.892288 31.0536659,12.8936523 L30.8601663,12.8936523 L30.928,12.471 L29.047,12.471 L29.0188964,12.6481552 C29.0188964,12.6759782 28.9599395,12.718531 28.8541194,12.7774503 C28.7312226,12.8463519 28.6020293,12.9012029 28.4686319,12.941115 C28.3208176,12.9848385 28.1683474,13.0073981 28.0151172,13.0082176 L27.8639456,13.0082176 L28.1844293,11.0229646 L28.2600151,10.5532468 L29.3303099,11.0229646 L31.0869237,11.0229646 L31.6613757,10.4452281 Z M16.3530067,9.95069652 L14.5740535,9.95069652 L14.079,12.733 L15.857,12.733 L16.3530067,9.95069652 Z M31.124,11.257 L29.2456538,11.2570051 L29.085,12.237 L30.966,12.237 L31.124,11.257 Z M24.4314238,9.48065844 L25.9563351,10.1769547 C25.9209064,10.2312702 25.8684594,10.2728572 25.806867,10.2954733 C25.7258917,10.324868 25.6385676,10.3333704 25.5532749,10.3201646 C25.1706853,10.6578058 24.7692451,10.9743433 24.3508117,11.2683128 C23.9590961,11.5456219 23.5514451,11.8006377 23.129875,12.0320988 L23.0626983,11.9728395 C23.190334,11.7703704 23.3330845,11.5316872 23.487591,11.2567901 C23.6420974,10.981893 23.8033215,10.6888889 23.9679045,10.3794239 C24.1324874,10.0699588 24.2937115,9.77366255 24.4314238,9.48065844 Z M19.1446165,9.56625514 C19.5489993,9.65908435 19.9296688,9.8321964 20.2631088,10.0748971 C20.4853953,10.240344 20.6554029,10.4640442 20.7534988,10.7201646 C20.8268159,10.9226037 20.833861,11.1424208 20.7736518,11.3489712 C20.7178616,11.5325921 20.610138,11.6969637 20.4629595,11.8230453 C20.3247573,11.9451665 20.1452077,12.012628 19.9591342,12.0123466 C19.7545677,12.0058329 19.5621197,11.9156969 19.4284381,11.763786 C19.4625764,11.5111149 19.4682085,11.2555263 19.4452323,11.0016461 C19.4230345,10.7508837 19.3786428,10.5024867 19.3125583,10.2592593 C19.250958,10.0319411 19.1659924,9.81133328 19.0589662,9.60082305 L19.1446165,9.56625514 Z M39.411,10.425 L38.427,10.425 L38.2615938,11.4260089 C38.6555485,11.1095418 39.0379453,10.7770492 39.4079254,10.4292564 Z M30.5396825,9.05571469 C30.7099642,9.08900585 30.8628708,9.18926436 30.9690098,9.337218 C31.0390744,9.45225817 31.0574069,9.5954012 31.0188964,9.72674002 C30.9782458,9.86817835 30.8998798,9.99344896 30.7936508,10.0868024 L30.735,10.132 L32.2857143,10.1326285 L33.0309902,9.30284841 C33.1625094,9.420687 33.2773998,9.52706907 33.3786848,9.6219946 L33.6976568,9.92313768 C33.8080121,10.0295197 33.9077853,10.1309919 34,10.2259174 C33.963501,10.3055663 33.8928466,10.3581057 33.8139261,10.3685753 L26.7588813,10.3683057 L26.7362056,10.1326285 L29.94,10.132 L29.9376545,10.0134102 C29.931464,9.92219182 29.9174325,9.83169606 29.8956916,9.74310649 C29.863148,9.61344227 29.8169918,9.48824094 29.7581255,9.36995094 C29.7066866,9.2633304 29.6420993,9.16477485 29.5661376,9.0769911 L29.6130008,9.03607492 C29.9204626,8.98208929 30.2344078,8.98874293 30.5396825,9.05571469 Z" id="形状结合" fill="url(#linearGradient-1)"></path>
                </g>
            </g>
        </g>
    </g>
</svg>