<?xml version="1.0" encoding="UTF-8"?>
<svg width="52px" height="52px" viewBox="0 0 52 52" version="1.1" xmlns="http://www.w3.org/2000/svg" xmlns:xlink="http://www.w3.org/1999/xlink">
    <title>导师人才库</title>
    <defs>
        <linearGradient x1="50%" y1="0%" x2="50%" y2="100%" id="linearGradient-1">
            <stop stop-color="#20BFCA" offset="0%"></stop>
            <stop stop-color="#468EED" offset="100%"></stop>
        </linearGradient>
    </defs>
    <g id="页面-1" stroke="none" stroke-width="1" fill="none" fill-rule="evenodd">
        <g id="图标PC" transform="translate(-504.000000, -557.000000)">
            <g id="导师人才库" transform="translate(504.000000, 557.000000)">
                <rect id="矩形备份-8" x="0" y="0" width="52" height="52"></rect>
                <g id="编组-15备份" transform="translate(8.000000, 7.000000)" fill="url(#linearGradient-1)" fill-rule="nonzero">
                    <path d="M25.7185741,6.11320755 C27.9277131,6.11320755 29.7185741,7.90406855 29.7185741,10.1132075 L29.7185741,32 C29.7185741,34.209139 27.9277131,36 25.7185741,36 L4,36 C1.790861,36 2.705415e-16,34.209139 0,32 L0,10.1132075 C-2.705415e-16,7.90406855 1.790861,6.11320755 4,6.11320755 L25.7185741,6.11320755 Z M26.3414634,18.3396226 L3.37711069,18.3396226 L3.37711069,31.6037736 C3.37711069,32.1560583 3.82482594,32.6037736 4.37711069,32.6037736 L25.3414634,32.6037736 C25.8937482,32.6037736 26.3414634,32.1560583 26.3414634,31.6037736 L26.3414634,18.3396226 Z M25.3414634,9.50943396 L4.37711069,9.50943396 C3.82482594,9.50943396 3.37711069,9.95714921 3.37711069,10.509434 L3.37711069,14.9433962 L26.3414634,14.9433962 L26.3414634,10.509434 C26.3414634,9.95714921 25.8937482,9.50943396 25.3414634,9.50943396 Z M17.5533293,10.9358491 C18.3036029,10.9358491 18.9118199,11.544066 18.9118199,12.2943396 C18.9118199,13.0446132 18.3036029,13.6528302 17.5533293,13.6528302 L6.76186768,13.6528302 C6.01159405,13.6528302 5.40337711,13.0446132 5.40337711,12.2943396 C5.40337711,11.544066 6.01159405,10.9358491 6.76186768,10.9358491 L17.5533293,10.9358491 Z M16.0689317,24.4528302 C17.1819077,24.4528302 18.1927669,24.9264595 18.9242556,25.69644 C19.6024431,26.4103147 20.0395319,27.3794526 20.0886074,28.4544112 L20.09323,28.6571695 L20.09323,28.9839624 C20.0940658,29.5844904 19.8605,30.1277237 19.4865586,30.5216626 C19.133557,30.893542 18.6563774,31.1328538 18.1285576,31.1701566 L17.9834065,31.1752694 L12.2423183,31.1752694 C11.6566509,31.1752694 11.1241624,30.9275328 10.739188,30.5223005 C10.396297,30.1613659 10.1712717,29.6749135 10.1361486,29.1337974 L10.1313321,28.9849183 L10.1313321,28.6571695 C10.1313321,27.5015918 10.5797281,26.4549317 11.300302,25.6964399 C11.9887615,24.9717525 12.9246911,24.5095767 13.9603136,24.4577107 L14.155625,24.4528302 L16.0689317,24.4528302 Z M16.0700998,26.8183148 L14.155625,26.8183148 L14.0286702,26.8233141 C13.6095986,26.8564317 13.2334125,27.0519788 12.9533478,27.346781 C12.6343598,27.6825546 12.4388297,28.1466609 12.4388297,28.6571695 L12.4388297,28.8097848 L17.786895,28.8097848 L17.786895,28.6571695 L17.7821013,28.5191519 C17.7503238,28.0633386 17.562366,27.6520298 17.272377,27.346781 C16.9643058,27.0224986 16.5399277,26.8183148 16.0700998,26.8183148 Z M15.1969981,19.6981132 C16.5025868,19.6981132 17.5609756,20.7624929 17.5609756,22.0754717 C17.5609756,23.3884505 16.5025868,24.4528302 15.1969981,24.4528302 C13.8914094,24.4528302 12.8330206,23.3884505 12.8330206,22.0754717 C12.8330206,20.7624929 13.8914094,19.6981132 15.1969981,19.6981132 Z M34.3414603,0 C35.2574465,-1.50053156e-15 36,0.742553516 36,1.6585397 L35.9999998,15.9755537 C35.9999998,16.9060561 35.2456786,17.6603774 34.3151762,17.6603774 C33.3846738,17.6603774 32.6303525,16.9060561 32.6303525,15.9755537 L32.6299587,3.317 L11.9924984,3.3170794 C11.0765122,3.3170794 10.3339587,2.57452588 10.3339587,1.6585397 C10.3339587,0.742553516 11.0765122,1.68263932e-16 11.9924984,0 L34.3414603,0 Z M21.6135084,10.9358491 C22.3595591,10.9358491 22.9643527,11.544066 22.9643527,12.2943396 C22.9643527,13.0446132 22.3595591,13.6528302 21.6135084,13.6528302 C20.8674577,13.6528302 20.2626642,13.0446132 20.2626642,12.2943396 C20.2626642,11.544066 20.8674577,10.9358491 21.6135084,10.9358491 Z" id="形状结合"></path>
                </g>
            </g>
        </g>
    </g>
</svg>