<?xml version="1.0" encoding="UTF-8"?>
<svg width="52px" height="52px" viewBox="0 0 52 52" version="1.1" xmlns="http://www.w3.org/2000/svg" xmlns:xlink="http://www.w3.org/1999/xlink">
    <title>毕业生论文查重</title>
    <defs>
        <linearGradient x1="50%" y1="0%" x2="50%" y2="100%" id="linearGradient-1">
            <stop stop-color="#20BFCA" offset="0%"></stop>
            <stop stop-color="#468EED" offset="100%"></stop>
        </linearGradient>
    </defs>
    <g id="页面-1" stroke="none" stroke-width="1" fill="none" fill-rule="evenodd">
        <g id="图标PC" transform="translate(-224.000000, -557.000000)">
            <g id="毕业生论文查重" transform="translate(224.000000, 557.000000)">
                <rect id="矩形备份-4" x="0" y="0" width="52" height="52"></rect>
                <g id="编组-11备份" transform="translate(8.000000, 7.000000)" fill="url(#linearGradient-1)" fill-rule="nonzero">
                    <path d="M25.1842579,25.3994329 C26.9674372,25.3994329 28.5644337,26.1299492 29.7201388,27.2991898 C30.8889799,28.4817203 31.6058383,30.1133536 31.6058383,31.8900948 C31.6058383,33.000241 31.3456612,33.9786969 30.8783687,34.8800089 L30.7320205,35.1481427 L33.0603096,37.2600221 C33.3580367,37.4573597 33.5073506,37.7863138 33.5073506,38.1652906 C33.5073506,38.4792569 33.3992921,38.8240276 33.2121843,39.1083025 L33.1121772,39.2449759 L32.742911,39.6185669 C32.502138,39.8621598 32.1154722,40 31.7196259,40 C31.3771048,40 31.0414573,39.8967958 30.8012542,39.7111756 L30.7044118,39.6266389 L28.3420174,37.4838242 C27.3696464,38.0584525 26.3165838,38.3807568 25.1842579,38.3807568 C23.4010786,38.3807568 21.8040821,37.6502405 20.648377,36.4809999 C19.4795359,35.2984694 18.7626775,33.6668361 18.7626775,31.8900948 C18.7626775,30.1133536 19.4795359,28.4817203 20.648377,27.2991898 C21.8040821,26.1299492 23.4010786,25.3994329 25.1842579,25.3994329 Z M28.1082042,6.72337929 C28.6909699,6.72337929 29.2285346,6.97489677 29.6183498,7.38570995 C30.0017327,7.78974443 30.2422019,8.34786099 30.2422019,8.97232815 L30.2435444,20.5672578 C30.2504656,20.6340394 30.2540137,20.7018338 30.2540137,20.7704644 C30.2540137,21.8369837 29.3971793,22.7015684 28.3402205,22.7015684 C27.2832618,22.7015684 26.4264274,21.8369837 26.4264274,20.7704644 C26.4264274,20.7196778 26.4283704,20.6693491 26.4321853,20.6195498 L26.4327929,10.6710691 L3.89832554,10.6710691 L3.89832554,32.1098051 L13.9314035,32.1098052 L13.9311831,32.119394 C14.9284148,32.1997633 15.7125341,33.0307986 15.7125341,34.0441291 C15.7125341,35.1106484 14.8439392,35.975233 13.7724732,35.975233 C13.7159351,35.975233 13.6599619,35.9728257 13.6046513,35.9681085 L2.13399772,35.9675369 C1.55123197,35.9675369 1.01366729,35.7160194 0.623852108,35.3052062 C0.240469162,34.9011718 0,34.3430552 0,33.7185881 L0,8.97232815 C0,8.34786099 0.240469162,7.78974443 0.623852108,7.38570995 C1.01366729,6.97489677 1.55123197,6.72337929 2.13399772,6.72337929 L28.1082042,6.72337929 Z M25.2920892,28.3876014 C24.3108649,28.3876014 23.4234013,28.7761127 22.7833987,29.4158057 C22.1550391,30.0438613 21.7647059,30.9150912 21.7647059,31.8986995 C21.7647059,32.8483416 22.1617955,33.7297985 22.8034463,34.3711389 C23.4422631,35.0096466 24.3219545,35.4097976 25.2920892,35.4097976 C26.2733136,35.4097976 27.1607772,35.0212864 27.8007798,34.3815934 C28.4291394,33.7535378 28.8194726,32.8823078 28.8194726,31.8986995 C28.8194726,30.9150912 28.4291394,30.0438613 27.8007798,29.4158057 C27.1607772,28.7761127 26.2733136,28.3876014 25.2920892,28.3876014 Z M16.278298,23.1583064 C17.2030299,23.1583064 18.0121704,24.0298556 18.0121704,25.0259118 C18.0121704,26.021968 17.2030299,26.8935172 16.278298,26.8935172 L12.9914789,26.8935172 C12.066747,26.8935172 11.2576065,26.021968 11.2576065,25.0259118 C11.2576065,24.0298556 12.066747,23.1583064 12.9914789,23.1583064 L16.278298,23.1583064 Z M7.88032454,23.1583064 C8.91655861,23.1583064 9.75659229,23.9944618 9.75659229,25.0259118 C9.75659229,26.0573618 8.91655861,26.8935172 7.88032454,26.8935172 C6.84409048,26.8935172 6.0040568,26.0573618 6.0040568,25.0259118 C6.0040568,23.9944618 6.84409048,23.1583064 7.88032454,23.1583064 Z M22.2823548,15.687885 C23.2070867,15.687885 24.0162272,16.5594342 24.0162272,17.5554904 C24.0162272,18.5515466 23.2070867,19.4230957 22.2823548,19.4230957 L12.9914789,19.4230957 C12.066747,19.4230957 11.2576065,18.5515466 11.2576065,17.5554904 C11.2576065,16.5594342 12.066747,15.687885 12.9914789,15.687885 L22.2823548,15.687885 Z M7.88032454,15.687885 C8.91655861,15.687885 9.75659229,16.5240404 9.75659229,17.5554904 C9.75659229,18.5869403 8.91655861,19.4230957 7.88032454,19.4230957 C6.84409048,19.4230957 6.0040568,18.5869403 6.0040568,17.5554904 C6.0040568,16.5240404 6.84409048,15.687885 7.88032454,15.687885 Z M35.1759181,0 C36.1833307,-3.93935818e-16 37,0.8166693 37,1.82408194 L36.9998481,1.84804169 L36.9999998,17.5509745 C36.9999998,18.5849185 36.1618226,19.4230957 35.1278786,19.4230957 C34.0939346,19.4230957 33.2557574,18.5849185 33.2557574,17.5509745 L33.2557302,3.648 L10.3048122,3.64816387 C9.29739952,3.64816387 8.48073022,2.83149457 8.48073022,1.82408194 C8.48073022,0.8166693 9.29739952,1.85058699e-16 10.3048122,0 L35.1759181,0 Z" id="形状结合"></path>
                </g>
            </g>
        </g>
    </g>
</svg>