<?xml version="1.0" encoding="UTF-8"?>
<svg width="52px" height="52px" viewBox="0 0 52 52" version="1.1" xmlns="http://www.w3.org/2000/svg" xmlns:xlink="http://www.w3.org/1999/xlink">
    <title>教育部人才服务网</title>
    <defs>
        <linearGradient x1="50%" y1="0%" x2="50%" y2="100%" id="linearGradient-1">
            <stop stop-color="#20BFCA" offset="0%"></stop>
            <stop stop-color="#468EED" offset="100%"></stop>
        </linearGradient>
    </defs>
    <g id="页面-1" stroke="none" stroke-width="1" fill="none" fill-rule="evenodd">
        <g id="图标PC" transform="translate(-364.000000, -557.000000)">
            <g id="教育部人才服务网" transform="translate(364.000000, 557.000000)">
                <rect id="矩形备份-6" x="0" y="0" width="52" height="52"></rect>
                <g id="编组-13备份" transform="translate(3.000000, 9.000000)" fill="url(#linearGradient-1)" fill-rule="nonzero">
                    <path d="M16.8096894,0.000950566266 L17.1550944,0.0108735625 C20.0364562,0.138683932 22.7481292,1.38693309 24.69342,3.48094854 C27.0300401,5.98059491 27.9805296,8.94755589 27.485483,12.29421 C27.1243646,15.0283679 25.6774088,17.5108498 23.4607539,19.1992701 L23.52511,19.2284773 C26.6483412,20.5901844 29.2497619,22.8402875 31.0200292,25.6508739 C31.0297406,25.6674673 31.0412641,25.6821959 31.0527221,25.6979556 C31.8734987,26.8268808 33.6627668,30.1478655 31.8450127,31.2256391 C30.6338699,31.9437438 29.6733628,31.7006674 28.9634914,30.4964099 C28.8260798,30.1961738 28.6950377,29.9109509 28.6616541,29.8331883 L28.6703922,29.8519028 C28.4620867,29.3340212 28.1904611,28.764749 27.9235993,28.2875657 C26.0300459,25.0285331 23.2775866,22.9621263 19.7429537,22.1491936 C18.6718756,21.89621 17.5746992,21.7655371 16.4731707,21.7597648 C13.3098227,21.7597648 10.4063743,22.9329191 7.85688412,25.2500207 C5.86711092,27.0594058 4.53294235,29.4584417 4.05740123,32.082063 L4.05740123,32.1137041 C4.00600129,32.5206909 3.84917896,32.9078808 3.60195833,33.2381798 C3.22149658,33.7172575 2.63844167,33.9980885 2.02028435,34 C1.70664431,33.9987675 1.39690453,33.931546 1.11187378,33.8028516 C0.294430342,33.4247268 -0.148317603,32.5408752 0.0450482949,31.6731627 C0.373476175,29.6869328 1.07430673,27.7779843 2.11186797,26.043482 C3.87678215,23.0618386 6.54349661,20.6957179 9.74053654,19.274722 L9.92617903,19.1919683 C7.62410268,17.4501934 6.14597505,14.858932 5.83461863,12.0191759 C5.39766476,8.92550605 6.4097878,5.80376398 8.58707789,3.52962715 C8.82152297,3.27370515 9.06938295,3.02998108 9.32964784,2.79944807 C11.2884467,1.03922693 13.827729,0.0493845282 16.4651597,0.00179955971 L16.8096894,0.000950566266 Z M40.1774194,19.9565217 C41.224088,19.9565217 42.0725806,20.8050144 42.0725806,21.851683 L42.0718387,24.7605217 L45.1521739,24.7608696 C46.1727001,24.7608696 47,25.5881695 47,26.6086957 C47,27.6292218 46.1727001,28.4565217 45.1521739,28.4565217 L42.0718387,28.4565217 L42.0725806,31.3657083 C42.0725806,32.412377 41.224088,33.2608696 40.1774194,33.2608696 C39.1307507,33.2608696 38.2822581,32.412377 38.2822581,31.3657083 L38.2818387,28.4565217 L35.2026648,28.4565217 C34.1821386,28.4565217 33.3548387,27.6292218 33.3548387,26.6086957 C33.3548387,25.5881695 34.1821386,24.7608696 35.2026648,24.7608696 L38.2818387,24.7605217 L38.2822581,21.851683 C38.2822581,20.8050144 39.1307507,19.9565217 40.1774194,19.9565217 Z M16.883,22.528 L18.5350399,25.2865297 C19.2825603,26.5375698 20.0317309,27.7869874 20.7825516,29.0347823 C20.8216986,29.0776065 20.8398488,29.1351196 20.8322341,29.1922127 C20.8246195,29.2493058 20.7920011,29.3002718 20.7429479,29.3317218 C19.5003809,30.5292155 18.2627643,31.731577 17.0300982,32.9388064 C16.9236631,33.0434654 16.8642575,33.0605029 16.7454464,32.9388064 C15.5028793,31.7299544 14.257837,30.522725 13.0103195,29.3171182 C12.9236864,29.2343646 12.8939836,29.1759502 12.9657653,29.0566877 C14.2479361,26.9213195 15.5268066,24.7859514 16.8023767,22.6505832 C16.815578,22.6262439 16.8320795,22.6040681 16.8533482,22.5732383 L16.883,22.528 Z M28.6983472,0.440969652 C30.1182925,0.427234912 31.5251931,0.708398512 32.8270361,1.26607201 C36.190878,2.72643016 38.3022519,5.18713365 39.1042274,8.58003242 C39.8433547,11.6873394 39.2807509,14.535727 37.4324659,17.0668022 C35.122951,20.0429367 32.9691276,21.3533729 30.961989,20.9984247 C30.2529134,20.7554965 29.7419197,20.1210184 29.6806904,19.3654137 C29.6101043,18.4943393 30.1556319,17.6891339 31.0003141,17.4176332 C32.2399697,17.0105529 33.3271431,16.2475639 34.1215831,15.2270959 C34.9863329,14.1890721 35.5048944,12.9143007 35.606723,11.5762006 C35.782416,9.70242399 35.1543194,7.84163541 33.8740598,6.44304166 C32.9028427,5.34207297 31.5919184,4.58385881 30.1414082,4.28414552 C29.5132093,4.16162206 28.8732792,4.10693999 28.2330034,4.1210722 C27.3427343,4.1233671 26.5710702,3.51552648 26.3790538,2.66071404 C26.2688533,2.13568872 26.4022279,1.58968024 26.742913,1.17114873 C27.1052638,0.725562417 27.6481243,0.458661406 28.2280529,0.440969652 L28.6983472,0.440969652 Z M16.8370303,3.94096179 C13.0339434,3.94230654 9.95204053,6.97496274 9.95340703,10.7145895 C9.95477443,14.4542164 13.0388936,17.4846933 16.8419804,17.4833497 C18.6682874,17.4827039 20.4195328,16.7686932 21.7104626,15.4983916 C23.0013925,14.2280899 23.7262604,12.5055537 23.7256043,10.7097214 C23.7242366,6.97009458 20.6401172,3.93961793 16.8370303,3.94096179 Z" id="形状结合"></path>
                </g>
            </g>
        </g>
    </g>
</svg>