<?xml version="1.0" encoding="UTF-8"?>
<svg width="50px" height="50px" viewBox="0 0 50 50" version="1.1" xmlns="http://www.w3.org/2000/svg" xmlns:xlink="http://www.w3.org/1999/xlink">
    <title>国家大学生就业服务平台</title>
    <defs>
        <linearGradient x1="-265.967314%" y1="-96.4885159%" x2="232.508834%" y2="134.628975%" id="linearGradient-1">
            <stop stop-color="#01A2EA" offset="0%"></stop>
            <stop stop-color="#039CE5" offset="4%"></stop>
            <stop stop-color="#1374C3" offset="40%"></stop>
            <stop stop-color="#1E5BAD" offset="69%"></stop>
            <stop stop-color="#2252A6" offset="86%"></stop>
        </linearGradient>
        <linearGradient x1="50.6377776%" y1="98.8707525%" x2="49.8838822%" y2="11.8006365%" id="linearGradient-2">
            <stop stop-color="#E3007F" offset="0%"></stop>
            <stop stop-color="#FFF000" offset="100%"></stop>
        </linearGradient>
        <linearGradient x1="49.0219127%" y1="-5.58099245%" x2="50.4543141%" y2="95.9905952%" id="linearGradient-3">
            <stop stop-color="#AACC03" offset="0%"></stop>
            <stop stop-color="#009FE8" offset="100%"></stop>
        </linearGradient>
        <linearGradient x1="7.17512492%" y1="39.4636897%" x2="85.0994101%" y2="61.2145982%" id="linearGradient-4">
            <stop stop-color="#01A2EA" offset="0%"></stop>
            <stop stop-color="#039CE5" offset="4%"></stop>
            <stop stop-color="#1374C3" offset="40%"></stop>
            <stop stop-color="#1E5BAD" offset="69%"></stop>
            <stop stop-color="#2252A6" offset="86%"></stop>
        </linearGradient>
    </defs>
    <g id="页面-1" stroke="none" stroke-width="1" fill="none" fill-rule="evenodd">
        <g id="图标PC" transform="translate(-428.000000, -120.000000)">
            <g id="国家大学生就业服务平台" transform="translate(428.000000, 120.000000)">
                <rect id="矩形备份-2" x="0" y="0" width="50" height="50"></rect>
                <circle id="椭圆形" stroke="#E6E6E6" fill="#FFFFFF" cx="25" cy="25" r="24.5"></circle>
                <g id="全国大学生职业规划大赛徽标" transform="translate(8.000000, 8.000000)" fill-rule="nonzero">
                    <path d="M25.2736307,8 C25.2482332,8.62389576 25.0273852,9.2389576 24.6011484,9.75022085 C24.1749117,10.2614841 23.6084364,10.5894435 23,10.7263693 C23.6238958,10.7517668 24.2389576,10.9726148 24.7502208,11.3988516 C25.2614841,11.8250883 25.5894435,12.3915636 25.7263693,13 C25.7517668,12.3761042 25.9726148,11.7610424 26.3988516,11.2497792 C26.8250883,10.7385159 27.3915636,10.4105565 28,10.2736307 C27.3761042,10.2482332 26.7610424,10.0273852 26.2497792,9.60114841 C25.7385159,9.17491166 25.4105565,8.6084364 25.2736307,8 Z" id="路径" fill="url(#linearGradient-1)"></path>
                    <path d="M2,10 L2,10 C2,10 2,10 2,10 C2,10 2,10 2,9.999 C2,9.999 2,10 2,10.001 L2,10 Z" id="路径" fill="#231815"></path>
                    <path d="M11.8223994,7.79796735 C11.0238882,9.75177087 10.8739388,11.671081 11.0885006,13.4437943 C11.4847084,13.4117647 11.9528433,13.4622729 12.505096,13.6458269 C12.505096,13.6458269 13.3377421,11.0194025 18.0983317,12.3461657 C16.6878318,5.2565445 24,0 24,0 C17.4412363,0.721897136 13.1341522,4.58761934 11.8223994,7.79796735 Z M13.2609387,15.1770865 C13.2609387,15.1770865 12.4624275,14.4983061 11.2408882,14.408377 C12.143023,18.9664306 15.2566071,22.3258392 15.2566071,22.3258392 L20.1147249,24 L21.527663,18.4909147 C19.5527193,16.3905143 18.5189216,14.3541731 18.1178374,12.4483923 C16.9926071,12.4459501 13.5986297,12.6504466 13.2609387,15.1770865 Z" id="形状" fill="url(#linearGradient-2)"></path>
                    <path d="M9.20041578,14.2525678 C9.20041578,14.2525678 9.43411114,13.5521594 10.1119439,13.125232 C9.59572136,8.06150229 12.3977403,5 12.3977403,5 C-1.25309147,11.2442767 8.16797062,23.6412573 8.16797062,23.6412573 L11.911747,25 L13,20.5277812 C11.3478552,18.0664522 10.5258521,15.8253929 10.2096077,13.8565772 C9.88871256,13.9308254 9.55154015,14.0570474 9.20157845,14.2525678 L9.20041578,14.2525678 Z" id="路径" fill="url(#linearGradient-3)"></path>
                    <path d="M27.2363991,22.3143522 L33.1971529,25.5430405 L35,24.3754751 L27.7136944,20.0992513 C27.7136944,20.0992513 21.6659399,25.852209 10.6386057,26.2232111 C10.6386057,26.2232111 17.9756617,27.3447044 27.2351907,22.3131398 L27.2363991,22.3143522 Z M19.9875521,11.8099 C20.7657247,11.5443789 21.546314,11.2849199 22.3317367,11.0436473 C22.3764453,11.0303106 22.4271957,11.0060621 22.4743211,11 C22.4743211,11 20.939726,11.1915632 18.6716671,11.6547096 C18.7018756,11.8474852 18.7405426,12.0390484 18.7840429,12.231824 C19.1840043,12.0887579 19.585174,11.9481165 19.9875521,11.8111125 L19.9875521,11.8099 Z M27.1034814,23.2709557 C25.4492604,24.1305652 23.8627067,24.7925493 22.3873204,25.3005555 L22.3873204,25.3005555 C22.3873204,25.3005555 22.3861121,25.3005555 22.3849037,25.3005555 C21.7154819,25.5309163 21.0678103,25.7309665 20.449139,25.9031308 C20.410472,25.9140427 20.3730134,25.9237421 20.3343464,25.9334415 C14.7022618,27.4344239 9.94864215,26.8100249 9.27197032,26.7081812 C5.99857034,26.1880508 3.64592738,24.7125293 3.37767533,22.698691 C3.2205908,21.5214261 3.7969702,20.3344618 4.90622867,19.2784394 C4.91347872,19.2699524 4.92193712,19.2626779 4.92918717,19.2541909 C4.68147695,18.5412849 4.47364203,17.777457 4.34072435,16.9796812 C1.32711802,19.2032691 -0.347644763,21.9530495 0.0607750204,24.6591826 C0.0656083907,24.6943429 0.072858446,24.7295032 0.0789001588,24.765876 C0.0921919269,24.8374091 0.106692038,24.9077297 0.122400491,24.9792628 C0.852239394,28.4055765 4.84581154,30.8558879 10.2277693,31.6257779 C10.9201496,31.7361086 11.6584469,31.8294653 12.4462862,31.9022108 C16.1015224,32.1883432 20.8503087,31.9143351 26.4243929,30.1648055 C28.0254468,29.6470999 29.4488743,29.1015086 30.6209666,28.6129012 C31.0342197,28.4407368 31.4148476,28.2746346 31.7628503,28.1206566 C32.5192727,27.7787527 33.2865703,27.4101754 34.0659512,27.0124999 L31.5489737,25.6606458 L27.1022731,23.2709557 L27.1034814,23.2709557 Z" id="形状" fill="url(#linearGradient-4)"></path>
                </g>
            </g>
        </g>
    </g>
</svg>