<?xml version="1.0" encoding="UTF-8"?>
<svg width="50px" height="50px" viewBox="0 0 50 50" version="1.1" xmlns="http://www.w3.org/2000/svg" xmlns:xlink="http://www.w3.org/1999/xlink">
    <title>学职平台</title>
    <defs>
        <linearGradient x1="63.0099222%" y1="22.0658194%" x2="20.0876392%" y2="100%" id="linearGradient-1">
            <stop stop-color="#284FD6" offset="0%"></stop>
            <stop stop-color="#6185FF" offset="100%"></stop>
        </linearGradient>
        <linearGradient x1="40.6315278%" y1="36.2241424%" x2="50%" y2="59.4517958%" id="linearGradient-2">
            <stop stop-color="#F8D630" offset="0%"></stop>
            <stop stop-color="#FB9A03" offset="100%"></stop>
        </linearGradient>
        <linearGradient x1="75.8297239%" y1="83.4710744%" x2="20.4851366%" y2="8.15292581%" id="linearGradient-3">
            <stop stop-color="#284FD6" offset="0%"></stop>
            <stop stop-color="#6185FF" offset="100%"></stop>
        </linearGradient>
    </defs>
    <g id="页面-1" stroke="none" stroke-width="1" fill="none" fill-rule="evenodd">
        <g id="图标PC" transform="translate(-574.000000, -120.000000)">
            <g id="学职平台" transform="translate(574.000000, 120.000000)">
                <rect id="矩形备份-2" x="0" y="0" width="50" height="50"></rect>
                <circle id="椭圆形" stroke="#E6E6E6" fill="#FFFFFF" cx="25" cy="25" r="24.5"></circle>
                <g id="logo备份-2" transform="translate(9.000000, 12.000000)">
                    <polygon id="Fill-1" fill="url(#linearGradient-1)" transform="translate(23.500000, 11.000000) scale(-1, 1) translate(-23.500000, -11.000000) " points="27.4749601 0 14 22 19.5544356 22 33 0 32.7043881 0"></polygon>
                    <polygon id="Fill-7" fill="url(#linearGradient-2)" transform="translate(11.500000, 17.000000) scale(-1, 1) translate(-11.500000, -17.000000) " points="4.17112567 15.2432432 13.1399395 15.2432432 15.3123886 18.7567568 2.01967144 18.7567568 0 22 23 22 16.6932973 12 6.18282625 12"></polygon>
                    <polygon id="Fill-4" fill="url(#linearGradient-3)" transform="translate(13.500000, 4.500000) scale(-1, 1) translate(-13.500000, -4.500000) " points="8 0 13.3875403 9 19 8.99955999 13.5980153 0"></polygon>
                </g>
            </g>
        </g>
    </g>
</svg>