<?xml version="1.0" encoding="UTF-8"?>
<svg width="50px" height="50px" viewBox="0 0 50 50" version="1.1" xmlns="http://www.w3.org/2000/svg" xmlns:xlink="http://www.w3.org/1999/xlink">
    <title>内地高校面向港澳台</title>
    <g id="页面-1" stroke="none" stroke-width="1" fill="none" fill-rule="evenodd">
        <g id="图标PC" transform="translate(-364.000000, -120.000000)">
            <g id="内地高校面向港澳台" transform="translate(364.000000, 120.000000)">
                <rect id="矩形备份-2" x="0" y="0" width="50" height="50"></rect>
                <circle id="椭圆形" stroke="#E6E6E6" fill="#FFFFFF" cx="25" cy="25" r="24.5"></circle>
                <path d="M35.8903976,22.0729534 C39.8202703,24.2817236 41.166744,29.17363 38.897831,32.9993322 C36.628918,36.8250344 31.6038094,38.1358168 27.6739368,35.9270466 C27.0494521,35.5760573 26.4902021,35.1573149 26.0003275,34.6858641 C28.1845,31.6077238 28.4947801,27.4563416 26.4454193,24.0008347 C26.3051763,23.7643656 26.1565092,23.5355832 26,23.3146393 L26.1371571,23.1850978 C28.7089698,20.8171174 32.6679021,20.2617619 35.8903976,22.0729534 Z M16.8891648,21 C18.4930653,24.4409945 21.9373973,26.8203649 25.9276585,26.8203649 C26.2003071,26.8203649 26.4704069,26.8092561 26.7375449,26.7874589 C27.6346968,30.2503185 26.1935576,34.0307246 22.9998241,35.9077361 C19.1739651,38.1562586 14.2818581,36.8218855 12.0729974,32.9273302 C9.86413667,29.0327749 11.1749728,24.0528265 15.0008318,21.8043039 C15.5364521,21.4895107 16.0929708,21.2449423 16.6600993,21.0677924 L16.8891648,21 Z M25,10 C29.418278,10 33,13.645898 33,18.143341 C33,18.8574658 32.9096957,19.5501209 32.7400769,20.2101195 C29.0096304,19.9041085 25.2631749,21.7510119 23.2679492,25.2687644 C23.1314709,25.5093873 23.0057407,25.7533245 22.8906069,26 C19.4963355,25.0591741 17,21.8980061 17,18.143341 C17,13.645898 20.581722,10 25,10 Z" id="形状结合" fill="#317FD0" fill-rule="nonzero"></path>
            </g>
        </g>
    </g>
</svg>