<?xml version="1.0" encoding="UTF-8"?>
<svg width="50px" height="50px" viewBox="0 0 50 50" version="1.1" xmlns="http://www.w3.org/2000/svg" xmlns:xlink="http://www.w3.org/1999/xlink">
    <title>出国教育背景信息服务</title>
    <g id="页面-1" stroke="none" stroke-width="1" fill="none" fill-rule="evenodd">
        <g id="图标PC" transform="translate(-116.000000, -120.000000)">
            <g id="出国教育背景信息服务" transform="translate(116.000000, 120.000000)">
                <rect id="矩形备份" x="0" y="0" width="50" height="50"></rect>
                <circle id="椭圆形" stroke="#E6E6E6" fill="#FFFFFF" cx="25" cy="25" r="24.5"></circle>
                <path d="M24.6308737,10 L25.3020071,10 C25.9758359,10.0757616 26.6523014,10.1332714 27.3230247,10.2305076 C30.1322755,10.6376751 32.5910768,11.8161408 34.7497019,13.6422133 C36.1542833,14.8304054 37.2925559,16.2465564 38.1655744,17.8553927 C39.0701749,19.522354 39.6458883,21.3108093 39.8532518,23.2066961 C39.9003026,23.636891 39.950957,24.0666757 40,24.4966362 L40,25.5033638 C39.9363671,26.032582 39.8760741,26.5622397 39.8084275,27.0910185 C39.6247066,28.5268862 39.2567082,29.9163477 38.6011022,31.2064637 C38.1385626,32.1165702 37.6178981,33.0031514 37.0538448,33.8541955 C36.3536195,34.9107862 35.4531205,35.8044279 34.472436,36.6010971 C33.1580304,37.6688206 31.7060173,38.5101089 30.1016017,39.0756552 C28.7388562,39.5560063 27.345056,39.8773048 25.896412,39.9374512 C25.6753962,39.9466212 25.4553764,39.9785547 25.2348879,40 L24.7650828,40 C24.5440669,39.9786426 24.3216156,39.9667481 24.1022403,39.9341993 C23.1343292,39.7903518 22.1503048,39.7100491 21.203634,39.478106 C19.3340814,39.0200498 17.6269215,38.185324 16.0794591,37.030208 C15.0643213,36.2724157 14.1543009,35.4073971 13.3600033,34.4220855 C12.5662037,33.4371256 11.902746,32.3733863 11.3763978,31.2187683 C10.7373152,29.8167971 10.3270706,28.3548844 10.1363185,26.8303937 C10.0701075,26.3011169 10.0442676,25.7668303 10,25.2348875 L10,24.7650832 C10.019043,24.6342728 10.0400782,24.5035796 10.0568067,24.3725055 C10.1709474,23.4780435 10.2325295,22.5732104 10.4083402,21.6911409 C10.7949422,19.7515725 11.6168375,17.9852656 12.751741,16.37432 C13.7214099,14.9978369 14.9010204,13.8215685 16.2744886,12.8343527 C17.6007301,11.8810919 19.0387979,11.1591883 20.5942877,10.6876263 C21.8331366,10.3120407 23.1027472,10.0616992 24.4077777,10.0524999 C24.4822798,10.0519433 24.5565181,10.0182519 24.6308737,10 Z M22.9280463,37.9260517 C24.0111719,38.0504542 25.0893889,38.011518 26.1733278,37.8570246 C27.3217471,37.6932878 28.4220966,37.3860359 29.4751314,36.9313156 C30.8620411,36.3323693 32.1009073,35.5044701 33.1969,34.4731869 C33.3772127,34.3035627 33.4238303,34.1543594 33.2956537,33.9421585 C33.1832487,33.7559814 33.0993661,33.5532515 32.9858573,33.3678708 C32.8537306,33.1520295 32.877141,32.9682699 32.9834466,32.7365583 C33.177004,32.3147162 33.3556321,31.8762075 33.4572614,31.4266067 C33.5860479,30.8563577 33.4915638,30.317451 33.0448482,29.8595738 C32.7882336,29.596662 32.5658923,29.2861678 32.3943803,28.9632448 C32.2151131,28.6255891 32.1152556,28.2473761 31.9713365,27.8619105 C31.8903875,27.9270696 31.8207079,27.9927976 31.741763,28.0452718 C31.2950474,28.3422848 30.8668336,28.6741669 30.3929606,28.9218057 C29.7625049,29.251185 29.1453228,29.246549 28.6120524,28.675845 C28.468598,28.5222332 28.2591238,28.4009593 28.0560977,28.3330699 C27.6019465,28.1811931 27.330664,27.8548002 27.0980118,27.4791468 C26.9833412,27.2939083 26.8772099,27.1031522 26.7758421,26.9106328 C26.1099511,25.6460451 26.375715,24.7360927 27.4763549,23.8859524 C27.7042438,23.7099005 27.7792967,23.5567154 27.8183334,23.2902484 C27.8786313,22.8789296 27.9917044,22.4635722 28.1615319,22.0839371 C28.2462568,21.8946599 28.4941579,21.6757753 28.6901841,21.6532213 C29.201961,21.5942624 29.5887854,21.3112995 30.0237377,21.1064933 C30.3681851,20.9443777 30.7324413,20.7840254 31.104714,20.7256353 C31.8413591,20.6101918 32.3927828,21.0229327 32.9003772,21.4746666 C33.0340434,21.5936367 33.1188264,21.5898825 33.2709653,21.517613 C33.6872706,21.3198035 34.1067708,21.1210269 34.5427688,20.9724777 C35.0163512,20.81113 35.5098587,20.705897 35.9958725,20.57592 C35.9958725,20.5454309 36.0060965,20.5093673 35.9943622,20.4824617 C35.4889171,19.3153426 34.7894209,18.2669661 33.9458893,17.3099433 C33.8972676,17.2547671 33.7573277,17.2476567 33.6675198,17.2624747 C33.496821,17.29066 33.3341096,17.3632708 33.1637884,17.3954664 C32.7205001,17.4792546 32.6519534,17.5803352 32.8234364,17.9867904 C32.9498994,18.2867329 33.1181293,18.5705775 33.2330032,18.8742173 C33.2944629,19.0366459 33.2824382,19.2257808 33.303525,19.4028851 C33.1226604,19.4175608 32.9041531,19.5026005 32.7684248,19.432976 C32.4329814,19.2609059 32.1140357,19.042135 31.8273303,18.7983643 C31.2586537,18.3148045 30.4754781,18.3485075 30.0131652,18.9279715 C29.7893718,19.2085169 29.6234654,19.5333456 29.399701,19.8139479 C29.0920248,20.1997832 28.7542579,20.5626948 28.429387,20.9354471 C28.3906646,20.921849 28.3519376,20.9082635 28.3132061,20.8946906 C28.3644128,20.1873259 27.9494726,19.6882656 27.4760354,19.130417 C27.7102271,19.0876696 27.8640797,19.0475389 28.0204011,19.0340577 C28.2187219,19.0169076 28.4225032,19.0413387 28.6174548,19.0098826 C28.7600088,18.9868735 28.8921065,18.9025449 29.0288805,18.8455769 C28.9695701,18.7232791 28.9359648,18.5779438 28.8467379,18.4824378 C28.3354837,17.9352832 28.5216637,17.7812448 29.0256274,17.407554 C29.0693405,17.3751308 29.1258044,17.3591753 29.1696047,17.3268659 C29.4776584,17.0999324 29.8514995,16.9022935 29.8939636,16.4843194 C29.9532159,15.9026085 30.3228455,15.6687069 30.8377012,15.5540314 L31.6850377,15.3653515 L31.7042656,15.2760172 L30.014298,14.3301433 C30.2437844,14.9739701 30.2209258,15.2346351 29.6879749,15.6257889 C29.3165154,15.8983992 28.8764221,16.1233418 28.4315073,16.2495645 C27.4267166,16.5346037 27.2084127,16.3568453 27.3709207,15.3499647 C27.4536415,14.8376507 27.5855359,14.3324755 27.7078454,13.8269875 C27.7677948,13.5789505 27.7437453,13.4410953 27.4380443,13.3718975 C25.9921728,13.044566 24.5417121,12.9120009 23.0562229,13.0606069 C22.3295403,13.133303 22.3196649,13.0971825 22.1602356,13.9678006 C22.1379579,14.0894158 22.1038008,14.2089548 22.0707473,14.3478339 C21.8837831,14.2880786 21.7358267,14.2464973 21.5921109,14.1937955 C21.0996781,14.0133067 20.6734103,14.133443 20.3951571,14.5476343 C20.0716223,15.029061 19.8140201,15.5530075 19.5298997,16.0547697 C19.9441718,16.3053095 20.0954684,16.7528626 20.0037145,17.2818148 C19.9076038,17.8359375 19.4451457,17.6693566 19.0241061,17.7175078 C19.2169664,17.8287987 19.348367,17.9015517 19.4766307,17.9792535 C19.8181155,18.186079 19.8412065,18.2913688 19.5915917,18.5896617 C19.451768,18.756783 19.2793846,18.8990182 19.1491458,19.0722829 C19.0269815,19.2347399 18.9196885,19.2027434 18.7529979,19.1431303 C18.381277,19.0101385 18.0022658,18.8780569 17.6144539,18.811106 C17.0737189,18.7178184 16.8927381,18.8484779 16.8300004,19.3684142 C16.7763248,19.8131515 16.5278138,20.0658813 16.1179275,20.1541633 C15.7758909,20.2278263 15.4186927,20.2467114 15.066984,20.2617853 C14.3378035,20.2930993 14.2245852,20.3960569 14.1957724,21.1031657 C14.1856356,21.3522834 14.1728847,21.6019985 14.1445075,21.8496088 C14.115927,22.0990963 14.0409613,22.3318319 13.7214347,22.340023 C13.4080948,22.3480719 13.2421013,22.1778789 13.1640277,21.8884313 C13.0739875,21.5545867 12.9731715,21.2223349 12.8518786,20.898388 C12.8097921,20.7859594 12.6926236,20.7004647 12.5591608,20.5430134 C12.397466,21.0010613 12.2780611,21.3699455 12.1370465,21.7307525 C11.9698331,22.1585672 11.9282694,22.5190044 12.168822,22.9909885 C12.5345886,23.708649 12.6917232,24.5256836 12.9771217,25.2862906 C13.1417791,25.7251405 13.3842777,26.1359189 13.5859097,26.547323 C13.6946841,26.5145017 13.719024,26.5127668 13.7359864,26.5009352 C13.7809866,26.4695544 13.8242115,26.4358016 13.86547,26.3998262 C14.198764,26.1101226 14.5277884,26.0519885 14.9512678,26.2787514 C15.2586825,26.4433414 15.6407144,26.5632217 15.9850747,26.5534095 C16.6333642,26.5350364 17.0286698,26.7914351 17.2673925,27.356138 C17.3095371,27.4557965 17.4081747,27.596183 17.4929577,27.6050567 C18.2535651,27.6840668 18.7044342,28.1966083 19.1378472,28.7189051 C19.8875045,29.622373 20.772077,30.3160005 21.9233427,30.6842307 C22.3201006,30.8111075 22.6988794,31.0537691 23.0238374,31.3170791 C23.3635795,31.5921922 23.2638963,32.0828908 22.8730056,32.285962 C22.5878686,32.4341699 22.3325029,32.6124971 22.2785078,32.9376955 C22.2113262,33.3422452 22.1699948,33.7528245 22.1491985,34.1623514 C22.1200951,34.7355014 22.0504737,34.7874353 21.4655899,34.8368095 C21.1601213,34.862492 20.7927282,34.9203986 20.5783743,35.1039307 C19.995059,35.6032185 19.6741963,36.2907596 19.3724455,37.0131983 C20.5351841,37.5266784 21.7172378,37.7869736 22.9280463,37.9260517 Z M12.1467342,24 C11.738743,25.0714606 12.2358149,27.9992405 12.9702963,29.4660735 C14.1046327,31.7314635 16.0654868,33.5366254 17,34 C16.6804637,33.493768 16.3848492,33.025294 16.0891304,32.5569826 C15.9719902,32.3713941 15.843828,32.2262759 15.5548198,32.1416191 C15.3052408,32.0685175 15.0701261,31.8853702 14.9175553,31.7050168 C14.359775,31.0453935 14.1066146,30.297533 14.0224712,29.5183975 C13.9447255,28.7983942 13.758706,28.0576133 13.8998027,27.3603949 C14.0045994,26.8425535 13.7882605,26.5824529 13.3912567,26.2926505 C13.3331908,26.2502543 13.2773154,26.2060136 13.2211618,26.162017 C13.0529794,26.0301629 13.0239812,25.9067175 13.1483882,25.7232176 C13.2592698,25.5595459 13.3501585,25.3375829 13.3010981,25.1674827 C13.1528736,24.6537642 12.7187701,24.2880935 12.1467342,24 Z" id="形状" fill="#1B82C6" fill-rule="nonzero"></path>
            </g>
        </g>
    </g>
</svg>