<?xml version="1.0" encoding="UTF-8"?>
<svg width="52px" height="52px" viewBox="0 0 52 52" version="1.1" xmlns="http://www.w3.org/2000/svg" xmlns:xlink="http://www.w3.org/1999/xlink">
    <title>第二学士学位招生</title>
    <defs>
        <linearGradient x1="50%" y1="0%" x2="50%" y2="100%" id="linearGradient-1">
            <stop stop-color="#20BFCA" offset="0%"></stop>
            <stop stop-color="#468EED" offset="100%"></stop>
        </linearGradient>
    </defs>
    <g id="页面-1" stroke="none" stroke-width="1" fill="none" fill-rule="evenodd">
        <g id="图标PC" transform="translate(-434.000000, -557.000000)">
            <g id="第二学士学位招生" transform="translate(434.000000, 557.000000)">
                <rect id="矩形备份-7" x="0" y="0" width="52" height="52"></rect>
                <g id="编组" transform="translate(6.000000, 7.000000)" fill="url(#linearGradient-1)">
                    <path d="M19.0554057,0.322378306 C19.9730973,-0.107459435 21.0549901,-0.107459435 21.9726818,0.322378306 L39.1926325,8.60869478 C40.7450158,9.32509101 41.4274622,11.1638414 40.7217265,12.7399131 C40.4156725,13.4563093 39.8275594,14.0294263 39.0982992,14.3398647 L35.44,15.978 L35.4402373,20.9431509 L35.435,20.943 L35.4347653,20.9629791 C35.3525308,22.0177105 34.4239088,22.8492549 33.366078,22.8492549 C32.2578742,22.8492549 31.3823729,21.9366302 31.3823729,20.8108506 C31.3823729,20.7559011 31.3844587,20.7014593 31.3885556,20.6476067 L31.4,17.787 L21.8783484,22.0530641 C21.5254806,22.2122633 21.1399398,22.3051295 20.7489535,22.3316627 L20.5139261,22.3396226 C20.0434356,22.3396226 19.5729452,22.2441031 19.1262145,22.0530641 L10.284,18.092 L10.2848587,27.4640015 L20.8351287,32.6667543 L24.5802373,30.8321509 L24.6654578,30.8058831 C26.8949304,29.9361287 28.2439859,33.2688723 26.4361205,34.3247658 C25.2057676,35.0433599 24.5872631,35.399021 24.580607,35.391749 L21.7462862,36.7730562 C21.4812136,36.9195888 21.1575784,37 20.8356029,37 C20.5309353,37 20.2395451,36.9336365 19.993203,36.8076912 L8.30060747,31.1139938 C7.0587019,30.5024324 6.25423729,29.1993827 6.25423729,27.7963034 L6.254,16.287 L1.90602848,14.3398647 C0.836504617,13.8874039 0.104373242,12.8562696 0.0102672619,11.6931571 L0.000542123288,11.4981596 C-0.0227471544,10.2561673 0.706277811,9.11017214 1.81193039,8.60869478 Z M33.3740511,24.4339623 C34.2250496,24.4339623 34.9149201,25.1238328 34.9149201,25.9748313 L34.9146883,28.3393774 L37.2685403,28.3403506 C38.1307494,28.3403506 38.8297079,29.0393091 38.8297079,29.9015181 C38.8297079,30.7637271 38.1307494,31.4626856 37.2685403,31.4626856 L34.9146883,31.4623774 L34.9149201,33.9339264 C34.9149201,34.7849248 34.2250496,35.4747954 33.3740511,35.4747954 C32.5230526,35.4747954 31.833182,34.7849248 31.833182,33.9339264 L31.8326883,31.4623774 L29.5058558,31.4626856 C28.6436468,31.4626856 27.9446883,30.7637271 27.9446883,29.9015181 C27.9446883,29.0393091 28.6436468,28.3403506 29.5058558,28.3403506 L31.8326883,28.3393774 L31.833182,25.9748313 C31.833182,25.1238328 32.5230526,24.4339623 33.3740511,24.4339623 Z M40.3050847,14.6603774 L40.3050847,24.9139741 C40.3050847,25.879645 39.8237361,26.7715098 39.1012116,27.1430169 C38.3989523,27.514524 37.5963702,27.0934826 37.2954019,26.2266326 C37.2153443,26.0034807 37.1950792,25.7808241 37.1950792,25.5579198 L37.1950792,15.9614982 L40.3050847,14.6603774 Z M20.5497348,4.26498664 L20.5141613,4.2642292 C20.4666418,4.2642292 20.418887,4.2642292 20.3713675,4.28858667 L5.79886653,11.3095086 C5.75134699,11.3336273 5.72735198,11.3577459 5.72735198,11.3821034 C5.75134699,11.4062221 5.77510676,11.4303408 5.79886653,11.4546982 L20.3713675,17.9672176 C20.4666418,18.0156938 20.5621514,18.0156938 20.6334307,17.9672176 L35.1819366,11.4546982 C35.2059316,11.4546982 35.2536864,11.4303408 35.2536864,11.3821034 C35.2296914,11.3577459 35.2059316,11.3336273 35.1819366,11.3095086 L20.6334307,4.31270534 C20.6099062,4.2642292 20.5621514,4.2642292 20.5141613,4.2642292 Z" id="形状结合"></path>
                </g>
            </g>
        </g>
    </g>
</svg>