<?xml version="1.0" encoding="UTF-8"?>
<svg width="52px" height="52px" viewBox="0 0 52 52" version="1.1" xmlns="http://www.w3.org/2000/svg" xmlns:xlink="http://www.w3.org/1999/xlink">
    <title>教研共同体</title>
    <defs>
        <linearGradient x1="50%" y1="0%" x2="50%" y2="100%" id="linearGradient-1">
            <stop stop-color="#2EC3CE" offset="0%"></stop>
            <stop stop-color="#4590EC" offset="100%"></stop>
        </linearGradient>
    </defs>
    <g id="页面-1" stroke="none" stroke-width="1" fill="none" fill-rule="evenodd">
        <g id="图标PC" transform="translate(-574.000000, -557.000000)">
            <g id="教研共同体" transform="translate(574.000000, 557.000000)">
                <rect id="矩形备份-9" x="0" y="0" width="52" height="52"></rect>
                <g id="编组-16备份-2" transform="translate(7.000000, 7.000000)" fill="url(#linearGradient-1)" fill-rule="nonzero">
                    <g id="logooooo">
                        <path d="M19.2151593,0 C12.6554647,0 6.8809991,3.31036063 3.52205518,8.32635208 L3.52205518,8.32635208 C3.31140398,8.64439209 2.87780678,9.38298752 2.8360044,9.45160026 L2.8360044,9.45160026 C2.02782511,10.8852019 1.51062315,12.4996182 1.36636397,14.2213932 L1.36636397,14.2213932 C1.33849572,14.5483125 1.32456159,14.8776534 1.32456159,15.2110304 L1.32456159,15.2110304 C1.32456159,16.9287693 1.69586506,18.5593298 2.3573262,20.0332919 L2.3573262,20.0332919 C4.22285973,24.1887995 8.42194947,27.0882911 13.30709,27.0882911 L13.30709,27.0882911 C15.5832704,27.0882911 18.6881215,26.3319371 21.0946269,25.2551214 L21.0946269,25.2551214 C21.5716658,25.0412112 22.0175579,24.8119642 22.4282048,24.5811026 L22.4282048,24.5811026 L19.0946701,22.0609987 L14.004616,25.8209743 L15.9504756,19.808888 L10.9218955,15.8398455 L17.2463493,15.8890853 L18.8954941,10.796409 C18.0201031,11.0724742 17.1586463,11.4179593 16.3676798,11.8514301 L16.3676798,11.8514301 C12.7571019,13.8282828 12.9349669,14.9720968 9.98503055,14.9720968 L9.98503055,14.9720968 C8.32768922,14.9720968 6.8367378,14.2698257 5.80233385,13.1518424 L5.80233385,13.1518424 C9.20308016,8.89462658 14.448049,6.16464866 20.3339877,6.16464866 L20.3339877,6.16464866 C28.5772524,6.16464866 35.5574297,11.5245108 37.9778694,18.9338744 L37.9778694,18.9338744 C37.9811479,18.7861553 38,18.6424723 38,18.4931388 L38,18.4931388 C38,8.27953399 29.5903453,0 19.2151593,0 Z M19.4249908,10.6381962 L21.0413494,15.9189519 L27.1125299,15.9665772 L22.1487026,19.72736 L23.4470352,23.9708532 C24.2822631,23.4332526 24.8224154,22.9981674 24.9084791,22.9416629 L24.9084791,22.9416629 C24.9207739,22.9311691 24.9330687,22.9206754 24.9453636,22.9093746 L24.9453636,22.9093746 L24.9502815,22.9158322 C25.8396066,22.3427144 26.9010591,22.0085302 28.0436574,22.0085302 L28.0436574,22.0085302 C29.7018183,22.0085302 31.1935894,22.7116085 32.228813,23.8312063 L32.228813,23.8312063 C28.8247881,28.0940725 23.5749013,30.8280865 17.6840448,30.8280865 L17.6840448,30.8280865 C9.43176375,30.8280865 2.44584888,25.4609595 0.022950328,18.0419094 L0.022950328,18.0419094 C0.0188520556,18.1896284 0,18.3333115 0,18.482645 L0,18.482645 C0,28.7091651 8.41867089,37 18.8028731,37 L18.8028731,37 C25.3691249,37 31.1493281,33.6856033 34.5123703,28.6631542 L34.5123703,28.6631542 C34.7222019,28.344307 35.1557991,27.6040971 35.1984211,27.5370988 L35.1984211,27.5370988 C36.00742,26.1010755 36.5254416,24.4842376 36.6697008,22.760041 L36.6697008,22.760041 C36.6967494,22.4331217 36.7106836,22.1029736 36.7106836,21.7695966 L36.7106836,21.7695966 C36.7106836,20.0494361 36.3393801,18.4164539 35.6779189,16.9408775 L35.6779189,16.9408775 C33.8099265,12.7797194 29.6067384,9.8761917 24.71668,9.8761917 L24.71668,9.8761917 C23.3650698,9.8761917 21.3897025,10.0844514 19.4249908,10.6381962 L19.4249908,10.6381962 Z M21.9896896,31.1630779 L25.5707599,31.1630779 L25.5707599,32.0639222 L24.3281638,32.0639222 L24.3281638,35.69313 L23.2265482,35.69313 L23.2265482,32.0639222 L21.9896896,32.0639222 L21.9896896,31.1630779 Z M18.6864822,33.1786766 C18.8151679,32.8259267 18.9389357,32.5086939 19.0676215,32.1672448 L19.0676215,32.1672448 L19.4495805,31.1630779 L20.6003753,31.1630779 L19.2151593,34.091629 L19.2151593,35.69313 L18.1201009,35.69313 L18.1201009,34.091629 L16.7422618,31.1630779 L17.9110891,31.1630779 L18.2922284,32.1672448 C18.4159962,32.5086939 18.5323871,32.8259267 18.6610729,33.1786766 L18.6610729,33.1786766 L18.6864822,33.1786766 Z M13.9316667,34.0730633 L13.9316667,31.1630779 L15.0332823,31.1630779 L15.0332823,34.1586273 C15.0332823,35.0473635 14.559522,35.7778868 13.532495,35.7778868 L13.532495,35.7778868 C12.8185759,35.7778868 12.3513729,35.5042433 12.0194129,34.9440409 L12.0194129,34.9440409 L12.7693967,34.3894888 C12.9292293,34.7010712 13.1636505,34.839911 13.3849572,34.839911 L13.3849572,34.839911 C13.7415069,34.839911 13.9316667,34.6639396 13.9316667,34.0730633 L13.9316667,34.0730633 Z" id="Fill-1"></path>
                    </g>
                </g>
            </g>
        </g>
    </g>
</svg>