<?xml version="1.0" encoding="UTF-8"?>
<svg width="90px" height="90px" viewBox="0 0 90 90" version="1.1" xmlns="http://www.w3.org/2000/svg" xmlns:xlink="http://www.w3.org/1999/xlink">
    <title>编组 14</title>
    <defs>
        <linearGradient x1="50%" y1="0%" x2="50%" y2="100%" id="linearGradient-1">
            <stop stop-color="#64D4DC" stop-opacity="0.99571132" offset="0%"></stop>
            <stop stop-color="#00BAC7" offset="100%"></stop>
        </linearGradient>
    </defs>
    <g id="页面-1" stroke="none" stroke-width="1" fill="none" fill-rule="evenodd">
        <g id="学历查询" transform="translate(-32.000000, -426.000000)">
            <g id="编组-14" transform="translate(32.000000, 426.000000)">
                <rect id="矩形" fill="url(#linearGradient-1)" x="0" y="0" width="90" height="90" rx="45"></rect>
                <path d="M45.4998291,49 C50.6586833,49 55.4202608,44.4011833 55.9539962,37.6752448 C56.5120948,30.6376711 51.931847,24 45.4998291,24 C39.0680572,24 34.4875223,30.6376711 35.0460721,37.6752448 C35.5795614,44.4011833 40.341221,49 45.4998291,49 Z M44.9064434,52 C33.3600938,52 24,56.6105311 24,62.2979346 C24,64.2427462 25.7805293,64.9924013 31.0169941,65.5606763 C35.0650723,66 39.8980664,66 45,66 C50.2259648,66 55.4088223,66 59.0550293,65.5606763 C64.2129902,64.9391899 66,64.2427462 66,62.2979346 C66,56.6105311 56.4523828,52 44.9064434,52 Z" id="形状结合" fill="#FFFFFF" fill-rule="nonzero"></path>
            </g>
        </g>
    </g>
</svg>