<?xml version="1.0" encoding="UTF-8"?>
<svg width="76px" height="76px" viewBox="0 0 76 76" version="1.1" xmlns="http://www.w3.org/2000/svg" xmlns:xlink="http://www.w3.org/1999/xlink">
    <title>编组 3</title>
    <defs>
        <linearGradient x1="50%" y1="0%" x2="50%" y2="100%" id="linearGradient-1">
            <stop stop-color="#64D4DC" stop-opacity="0.99571132" offset="0%"></stop>
            <stop stop-color="#00BAC7" offset="100%"></stop>
        </linearGradient>
    </defs>
    <g id="页面-1" stroke="none" stroke-width="1" fill="none" fill-rule="evenodd">
        <g id="出国教育背景服务" transform="translate(-112.000000, -793.000000)">
            <g id="编组-3" transform="translate(112.000000, 793.000000)">
                <rect id="矩形" fill="url(#linearGradient-1)" x="0" y="0" width="76" height="76" rx="38"></rect>
                <g id="成绩单" transform="translate(21.000000, 18.000000)" fill="#FFFFFF" fill-rule="nonzero">
                    <path d="M17.9696725,17.5038375 C17.4971765,17.5628764 17.1026422,18.379974 16.9372686,18.3917818 C17.1144546,18.379974 17.5137138,17.5652379 17.9696725,17.5038375 Z M13.0084638,27.0067304 C12.9742631,26.9598449 12.9442242,26.9100631 12.9186895,26.8579525 C12.9385758,26.9129448 12.9690783,26.963495 13.0084638,27.0067304 L13.0084638,27.0067304 Z M15.9662892,15.6193175 L15.8481652,15.7090566 C15.8892388,15.6814466 15.9286794,15.6514835 15.9662892,15.6193175 L15.9662892,15.6193175 Z M12.6588167,25.6393907 L12.6588167,25.7149604 C12.6810163,26.0265644 12.7380717,26.3347013 12.8289153,26.6336049 C12.8549026,26.7257055 12.8903398,26.7989137 12.9186895,26.8697603 C12.9450969,26.9213905 12.9750953,26.9711052 13.0084638,27.0185382 L13.0320886,27.0445153 L12.9966514,27.0020073 C13.0669101,27.1280131 13.2021017,27.2038002 13.3462985,27.1980163 C13.6156212,27.1673161 14.0172429,26.9169914 14.4046897,26.617074 L14.4779266,26.5556736 C14.5535259,26.4966348 14.6244004,26.4375959 14.6952748,26.373834 L14.8157613,26.2770103 C14.9456977,26.1589326 15.0520093,26.0408549 15.1654084,25.9369465 L15.3331445,25.7432991 L16.9112813,23.6958319 C17.5798633,22.6260479 18.8201654,20.1039084 18.7681909,18.7365687 L18.7681909,18.6444681 C18.7415724,18.3888187 18.6670371,18.140465 18.5484802,17.9123864 C18.4637945,17.6976584 18.2746016,17.5415462 18.0476344,17.4991144 C18.1718504,17.5114251 18.2867241,17.5705281 18.3689317,17.6644232 C18.2870273,17.5792385 18.1771511,17.526418 18.0594468,17.5156453 L17.9696725,17.5156453 C17.5302512,17.5817688 17.1286295,18.4083127 16.949081,18.4083127 C16.9149727,18.4128785 16.8803944,18.4044481 16.8522193,18.3846971 C16.8757385,18.3940324 16.9019371,18.3940324 16.9254562,18.3846971 C16.8857904,18.3894039 16.8464995,18.3733367 16.8215071,18.3421892 C16.7656932,18.2581048 16.7353415,18.1597055 16.7340953,18.0588027 L16.7340953,18.0706105 L16.7340953,18.0706105 C13.7573701,20.4841186 12.6021172,23.5234384 12.6753541,25.6275829 L12.6588167,25.6393907 Z M25.8036574,31.3779667 C25.4540103,31.4322824 25.0949132,31.4913213 24.7121914,31.5574448 C25.0901883,31.4960444 25.4540103,31.4322824 25.8036574,31.3779667 Z M12.5997547,19.0341245 C11.4397768,20.8596056 10.3790232,23.5635848 10.6105462,25.8637383 C10.3908356,23.5635848 11.4350519,20.8761365 12.5997547,19.0341245 Z M10.6105462,25.8637383 C10.7522951,27.4341717 11.7043746,29.004605 13.0982381,29.0234975 C11.7043746,29.004605 10.7641075,27.4341717 10.6105462,25.8637383 L10.6105462,25.8637383 Z M15.7961906,15.7515645 C14.5359506,16.6377429 13.4519659,17.7509342 12.5997547,19.0341245 C13.4594502,17.7600901 14.5385093,16.6486713 15.7867407,15.7515645 L15.7961906,15.7515645 Z M12.8123779,26.6147125 C12.7245766,26.3143767 12.6683603,26.005704 12.6446418,25.6937065 C12.664646,26.0061704 12.7209362,26.3152487 12.8123779,26.6147125 Z M16.9608934,15.0430984 C16.9727058,15.0430984 16.9892432,15.0265675 17.0010556,15.0265675 C16.985585,15.0237423 16.9698883,15.0302031 16.9608934,15.0430984 Z M16.3230237,15.3878852 C16.2064747,15.4587318 16.0907132,15.53194 15.9757391,15.6075097 C16.0985881,15.53194 16.2119871,15.4540087 16.3230237,15.3878852 Z M12.8360027,26.6076278 C12.854668,26.6901749 12.8848906,26.7696768 12.925777,26.8437832 C12.8876849,26.7684143 12.8575959,26.6892639 12.8360027,26.6076278 Z M25.250837,18.3209352 C23.4648018,20.3518715 22.7324329,22.5717322 22.7395203,24.2460739 C22.7395203,22.5646475 23.4695268,20.3471484 25.250837,18.3209352 Z M22.7513327,24.2460739 L22.7513327,24.46806 C22.7513327,24.8553548 22.959231,26.0432164 23.4600768,25.9676467 C23.8458813,25.8517715 24.2015359,25.6526509 24.5019307,25.3843429 C24.2053191,25.6536125 23.8515465,25.8522287 23.4671643,25.9652852 C23.2616285,25.9889007 23.1104298,25.807061 22.9946682,25.5567363 C23.1057048,25.7928917 23.2569035,25.9794545 23.4671643,25.9487543 C24.0081723,25.8897154 25.0831008,24.9687094 25.4421979,24.4798678 L27.0108848,22.4229543 C27.6818292,21.3744244 28.9008691,18.9066005 28.8701568,17.52273 L28.8701568,17.5085606 C28.8759964,17.463881 28.8759964,17.4186317 28.8701568,17.3739521 C28.8708578,17.3490241 28.8668503,17.3241875 28.8583444,17.3007439 C28.8232752,17.0947145 28.7579983,16.8949819 28.6646211,16.7079939 C28.7534235,16.9054617 28.8169253,17.1133485 28.8536195,17.326721 C28.8247125,17.1100659 28.7608863,16.8995222 28.6646211,16.7032708 L28.6220964,16.6135317 C28.5990482,16.5766271 28.5738029,16.5411399 28.546497,16.5072618 C28.4483204,16.3434161 28.2640349,16.2513095 28.074001,16.2711064 C28.2488076,16.253542 28.4200401,16.3288189 28.5252347,16.4694769 C28.4177536,16.3317247 28.2482104,16.2571904 28.074001,16.2711064 C27.9168014,16.2993893 27.7727655,16.3771712 27.6629294,16.4930925 C27.5344579,16.6160529 27.4174279,16.7504266 27.3132823,16.8945566 C27.1975208,17.0433345 27.105384,17.1614122 27.0439595,17.1614122 L27.0321471,17.1614122 C27.0935716,17.1448813 27.1880708,17.0433345 27.3014699,16.8945566 C27.1857084,17.0268036 27.0935716,17.1448813 27.0321471,17.1448813 C26.9707226,17.1448813 26.9187481,17.1023734 26.8856733,17.0315267 C26.8565695,16.9626651 26.8405466,16.8889886 26.8384237,16.8142638 C26.8346205,16.8157174 26.8304145,16.8157174 26.8266113,16.8142638 L26.8266113,16.8142638 C23.8947732,19.1758177 22.7371579,22.1301216 22.7489703,24.2342661 L22.7513327,24.2460739 Z M4.60748369,30.5254457 C4.46694282,30.5021946 4.33405733,30.4454974 4.22003691,30.360137 C4.0404884,30.2727595 3.85621494,30.206636 3.67902891,30.1405125 C3.85621494,30.2113591 4.0404884,30.2845672 4.22003691,30.3766678 C4.33143996,30.4637972 4.46637612,30.5156121 4.60748369,30.5254457 L4.60748369,30.5254457 Z M26.8147989,16.8284331 C26.249948,17.2833427 25.7244093,17.7849761 25.2437495,18.3280198 C25.7226118,17.7832493 26.2483053,17.2814682 26.8147989,16.8284331 L26.8147989,16.8284331 Z M25.8154698,31.3850514 C25.4658227,31.4393671 25.1067256,31.5031291 24.7240038,31.5645295 L27.8731901,34.785689 L22.6757334,36.8898335 L24.6224172,31.5810603 L23.4648018,31.784154 C23.8616985,31.7109458 24.2491453,31.6448223 24.6224172,31.5810603 C20.0415678,32.3650962 13.5376594,33.7914748 7.54877172,36.2144291 C7.54877172,36.2144291 6.2163328,36.9087259 5.80053626,36.9016413 L5.76746154,36.9016413 C5.76291551,36.9034795 5.75783269,36.9034795 5.75328666,36.9016413 L5.75328666,36.9016413 L5.75328666,36.9016413 L5.75328666,36.9016413 C5.75328666,36.9016413 5.75328666,36.9016413 5.73674929,36.9016413 C5.61796384,36.8505943 5.53034803,36.7463724 5.50050126,36.6206164 C5.50050126,36.4269689 5.73674929,36.23096 5.73674929,36.23096 C5.73674929,36.23096 12.6304669,32.4052426 25.4799975,31.0355414 L25.3122614,30.863148 L26.3659277,29.793364 C22.300099,30.3365214 13.4384352,31.7983233 5.49341382,35.0076751 C5.49341382,35.0076751 5.35402748,35.0808832 5.15557913,35.1706223 C4.72560771,35.378439 4.03103848,35.6878026 3.73809092,35.6925257 C4.028676,35.6925257 4.72324522,35.378439 5.13904177,35.1706223 C4.6665457,35.3949699 3.83259013,35.7775416 3.64122923,35.6759948 C3.51836093,35.6273364 3.42616867,35.5228928 3.39316879,35.3949699 C3.38135639,35.2013225 3.64122923,35.0076751 3.64122923,35.0076751 C3.64122923,35.0076751 11.6358627,30.5254457 26.5005891,29.507616 C26.5005891,29.507616 25.1964999,29.6989019 24.5019307,29.8311489 C24.5019307,29.8311489 25.4067607,29.746133 26.450977,29.6587555 L32.9170857,23.1054434 L32.9170857,2.00732082 C32.9660116,0.993622626 32.2200275,0.115730793 31.2113749,0 L1.73234511,0 C0.724221296,0.12369575 -0.0251651479,0.992356987 0.00064701334,2.00732082 L0.00064701334,37.9950407 C-0.0165440075,39.0782227 0.842663834,39.9729238 1.9260685,40 L32.9170857,40 L32.9170857,29.7225174 L28.546497,34.1598772 L25.8154698,31.3850514 Z M13.5447468,28.9975204 C13.3961397,29.0267623 13.244969,29.0410031 13.0935131,29.0400752 C11.6972872,29.0234975 10.7452076,27.448341 10.5892839,25.8779077 C10.3695733,23.5777542 11.416152,20.8761365 12.5761299,19.0506553 C13.4310012,17.7719397 14.5117606,16.6595942 15.7654784,15.7680954 C15.7760691,15.7556119 15.7888861,15.7452021 15.803278,15.7373952 C15.8170315,15.7326612 15.828171,15.7223826 15.8339903,15.7090566 L15.9332145,15.6358484 C16.1448973,15.4892808 16.3649847,15.3552299 16.5923465,15.2343842 L16.5923465,15.2343842 C16.4978473,15.2816153 16.4033481,15.3406542 16.3064864,15.399693 C16.3986231,15.3406542 16.4978473,15.2863384 16.5923465,15.2343842 C16.6301462,15.2202149 16.6703083,15.1918763 16.7104705,15.1753454 C16.7506327,15.1588145 16.7364578,15.1611761 16.7482702,15.1446452 C16.7600826,15.1281143 16.8002448,15.113945 16.826232,15.1021372 C16.8519965,15.0861373 16.878835,15.0719342 16.9065564,15.0596292 C16.9065564,15.0596292 16.9325437,15.0430984 16.9443561,15.0430984 C17.1815351,14.9293031 17.4336931,14.8497892 17.6932623,14.806943 L17.7334245,14.806943 C18.4421686,14.7313732 19.4107855,15.5933404 19.4509477,16.0396741 C19.4441397,16.1198613 19.3969499,16.1910632 19.3257362,16.2285984 C19.1830743,16.2855545 19.0506232,16.365313 18.9335645,16.4647538 L18.9335645,16.4647538 C18.9335645,16.4647538 18.9335645,16.4647538 18.9335645,16.4765616 C19.0822554,16.5050217 19.2227029,16.5663425 19.3446361,16.6560397 C19.831307,17.0315267 19.9683309,17.808478 20.0297554,18.46499 C20.4030273,22.387531 17.794849,28.1142992 13.521122,28.9927973 C13.3792457,29.0190041 13.2354139,29.0332237 13.0911506,29.0353052 L13.0911506,29.0353052 C13.2408999,29.0333765 13.390238,29.0191594 13.5376594,28.9927973 C17.5397011,28.1568072 20.0864549,23.0889125 20.0817365,19.2301334 C20.0817365,23.0889125 17.5444261,28.1686149 13.5329344,29.004605 L13.5447468,28.9975204 Z M19.7958698,17.2275357 C19.9409325,17.5934441 20.0270505,17.980026 20.0510177,18.3728894 C20.0213175,17.9808551 19.9353892,17.595125 19.7958698,17.2275357 L19.7958698,17.2275357 Z M27.8850025,13.5553194 C27.9030451,13.5575668 27.921297,13.5575668 27.9393396,13.5553194 C27.9268456,13.5530102 27.9140339,13.5530102 27.9015399,13.5553194 C28.3882108,13.5340654 28.9528437,13.8882985 29.2859534,14.2637856 C29.0366429,13.9866061 28.7259864,13.7714962 28.3787609,13.6356122 C28.9835559,13.8481521 29.5600011,14.4432637 29.5907133,14.7927736 C29.6025257,15.0029519 29.215079,15.0549061 29.0898675,15.1989609 C29.215079,15.050183 29.6143381,14.9864211 29.5765385,14.7927736 C29.5765385,15.0147597 29.1631044,15.0572677 29.0567928,15.2225765 C29.8860234,15.4138623 30.0773843,16.4033534 30.1553461,17.2275357 C30.533343,21.1500768 27.9204397,26.8815681 23.6467128,27.7529815 C23.5022569,27.7835471 23.3549462,27.7985891 23.2072915,27.7979341 C23.3587409,27.7963867 23.5097551,27.7813702 23.6585252,27.7529815 C23.5101719,27.7841546 23.3588811,27.7991986 23.2072915,27.7979341 C21.8110656,27.7813201 20.858986,26.2061637 20.7030623,24.6357303 C20.4833516,22.3355768 21.5299304,19.6339591 22.6899083,17.808478 C22.9688009,17.3817131 23.2766456,16.9745705 23.6112756,16.5899162 C23.5758384,16.627701 23.5451261,16.6725706 23.5096889,16.7103554 C23.5498511,16.6678474 23.5829258,16.6206164 23.623088,16.5781084 L23.6538002,16.5426851 C23.6629175,16.534347 23.6708645,16.5248143 23.677425,16.5143464 C25.0949132,14.9202976 26.9045732,13.6804818 27.8188531,13.5624041 L27.8850025,13.5553194 Z M4.71607898,6.36438777 L4.71607898,6.36438777 C4.71407374,6.21719276 4.75336357,6.07236831 4.82955684,5.94639273 C4.88905175,5.85053028 4.96990482,5.76970892 5.06580487,5.71023734 L5.06580487,5.71023734 L5.08234224,5.71023734 C5.17577262,5.6541119 5.28282484,5.62470451 5.39182716,5.6252147 L25.9902933,5.6252147 C26.381628,5.65420973 26.6789274,5.98906353 26.6612377,6.38091864 L26.6612377,6.506081 C26.6500375,6.71094839 26.566296,6.90515233 26.4249897,7.05396151 C26.308606,7.16573521 26.1540381,7.22905786 25.9926558,7.23107805 L5.38946468,7.23107805 C4.99812995,7.20208972 4.70083061,6.86723591 4.71852026,6.4753808 L4.71852026,6.36438777 L4.71607898,6.36438777 Z M4.71612357,10.4475145 L4.71612357,10.4475145 C4.71482761,10.3002875 4.75230925,10.1553067 4.82483188,10.0271579 C4.88497664,9.93181236 4.965697,9.85112365 5.06107991,9.79100248 L5.06107991,9.79100248 C5.06107991,9.79100248 5.06107991,9.79100248 5.0752548,9.79100248 C5.16784886,9.73520572 5.27427453,9.70656389 5.38237724,9.70834809 L15.6473543,9.70834809 C16.0363506,9.74202428 16.3310542,10.0739543 16.3182988,10.4640453 L16.3182988,10.5537844 C16.3312167,10.743327 16.2674373,10.930114 16.141281,11.0722062 C16.0151247,11.2142984 15.8371633,11.2997886 15.6473543,11.3094816 L5.38946468,11.3094816 C4.99812995,11.2804933 4.70083061,10.9456395 4.71852026,10.5537844 L4.71852026,10.4640453 L4.71612357,10.4475145 Z M2.61355028,28.9337584 C2.60332382,28.8649868 2.5993701,28.7954286 2.60173787,28.7259417 C2.57338811,27.6278191 3.09077131,25.4906128 3.46876816,24.5696068 C3.09549627,25.4811666 2.59701291,27.5782265 2.60173787,28.697603 L2.60173787,28.697603 C2.5993353,28.7623829 2.60329169,28.8272423 2.61355028,28.8912504 C2.61355028,28.8345731 2.60173787,28.7590034 2.60173787,28.6834337 C2.60173787,27.580588 3.09549627,25.4835282 3.46876816,24.5719684 C4.53897176,21.9506435 5.78163642,19.5890896 6.22105776,18.7530995 L6.1808956,18.7223993 L4.55078416,19.6670209 L6.17853312,18.7035069 L4.55078416,19.6481285 C4.4032628,19.7536792 4.24486165,19.8431408 4.07828809,19.9149841 C3.92236439,19.9291534 3.89873958,19.7071673 3.89873958,19.5583894 L3.89873958,19.4686504 C3.89873958,18.8735388 4.22003691,18.6539143 4.61929609,18.3091274 C5.17684145,17.8509859 7.05973829,16.2285984 7.56530908,16.1695596 C8.01654283,16.1105207 8.49376386,17.1637738 8.51030122,17.4778604 C8.51967532,17.5467167 8.52362493,17.6162026 8.52211362,17.6856772 C8.52211362,18.1438186 8.26224078,18.7247609 6.26358241,23.7997402 C6.13364599,24.1209116 5.96590989,24.557799 5.79108634,25.0466407 C5.39397918,26.0648017 5.07182422,27.1106055 4.82719436,28.1756996 C4.74959979,28.5196384 4.70217038,28.8696882 4.68544554,29.221868 C4.6831222,29.3157013 4.68706844,29.4095851 4.69725794,29.5028929 L4.69725794,29.5028929 C4.69135068,29.5172666 4.69135068,29.5333887 4.69725794,29.5477624 C4.72560771,29.7555792 4.77521979,29.946865 4.7988446,30.1546818 C4.79306758,30.1682627 4.79306758,30.1836088 4.7988446,30.1971898 L4.7988446,30.2562286 C4.7988446,30.2727595 4.7988446,30.2869288 4.7988446,30.2987366 L4.7988446,30.3152674 C4.78538609,30.4284689 4.69295007,30.5159009 4.57913392,30.5230842 C4.44190221,30.5061642 4.30983536,30.460281 4.19168715,30.3884756 C3.45931824,30.0247963 2.68206221,29.9822883 2.58047555,28.9290353 L2.61355028,28.9337584 Z M6.97468899,36.4907309 L7.10226293,36.4316921 L6.97468899,36.4907309 Z M4.82010692,30.317629 C4.80172174,30.4282842 4.71194102,30.5132047 4.60039625,30.5254457 C4.71421239,30.5182625 4.80664842,30.4308304 4.82010692,30.317629 L4.82010692,30.317629 Z M26.6588752,6.36438777 C26.6717932,6.1748452 26.6080138,5.98805813 26.4818575,5.84596593 C26.3557012,5.70387373 26.1777397,5.61838354 25.9879308,5.60869052 C26.3786737,5.63887223 26.6753092,5.97297832 26.6588752,6.36438777 Z M20.7290496,24.6121148 C20.4928015,22.3095997 21.5559177,19.6221514 22.7064456,17.7801393 C21.5441053,19.6056205 20.4975265,22.3095997 20.7172372,24.6073917 C20.8731609,26.1825481 21.8276029,27.7529815 23.2238288,27.7695123 C21.8276029,27.7458968 20.8873358,26.1707403 20.7290496,24.6121148 L20.7290496,24.6121148 Z M29.5765385,14.7833274 C29.5387629,14.5963939 29.4467329,14.4247267 29.3119407,14.2897627 C29.4467329,14.4247267 29.5387629,14.5963939 29.5765385,14.7833274 L29.5765385,14.7833274 Z M3.67194147,30.1334278 C3.14274587,29.9185264 2.68678717,29.703625 2.61355028,28.8983351 C2.68678717,29.703625 3.14747083,29.9256111 3.67194147,30.1334278 Z M25.4303855,24.4656984 C25.1506717,24.8005896 24.8336211,25.1024619 24.4853933,25.3654505 C24.8363691,25.1057124 25.1537861,24.8034913 25.4303855,24.4656984 L25.4303855,24.4656984 Z M27.0108848,22.4465698 C27.6818292,21.3933168 28.9221314,18.904239 28.8701568,17.5298146 C28.910319,18.9136852 27.6889167,21.3933168 27.0108848,22.4465698 Z M24.6484045,31.4842366 L24.6129673,31.5786988 C24.6484045,31.5786988 24.6838417,31.566891 24.7192789,31.5574448 L24.6484045,31.4842366 Z M39.6005426,20.8572441 L38.2988159,19.5300508 C38.0433427,19.2661357 37.6916786,19.1171302 37.3242928,19.1171302 C36.9569069,19.1171302 36.6052428,19.2661357 36.3497696,19.5300508 L34.7220207,21.1831385 L37.9727936,24.5058448 L39.5958176,22.8527571 C40.1347275,22.2975707 40.1347275,21.414792 39.5958176,20.8596056 L39.6005426,20.8572441 Z M24.6129673,31.5834219 C24.6484045,31.5834219 24.6838417,31.5716141 24.7216414,31.5621679 C24.6885666,31.5621679 24.6531294,31.5621679 24.6129673,31.5834219 Z M32.9052733,23.1054434 L32.9052733,29.7177943 L37.3679986,25.193057 L34.1172257,21.8703507 L32.9052733,23.1054434 Z M28.5961091,29.507616 C27.9865892,29.5383162 27.1786209,29.5973551 26.450977,29.6587555 L26.3375779,29.77211 C27.7550661,29.5808242 28.5961091,29.507616 28.5961091,29.507616 L28.5961091,29.507616 Z M30.6231173,30.7450703 C30.297095,30.7757705 28.4968849,30.9599717 25.8154698,31.3874129 C28.7756576,30.9151021 30.6821793,30.7403471 30.6845417,30.7403471 L30.6609169,30.7403471 C30.6444614,30.7380214 30.6277604,30.7380214 30.6113049,30.7403471 C29.4111648,30.8017475 27.5093682,30.9765025 26.8313363,31.0379029 L26.5950883,31.0615185 C26.5988382,31.0632366 26.6031508,31.0632366 26.6069007,31.0615185 C26.5975212,31.0598871 26.5879304,31.0598871 26.5785509,31.0615185 L26.6069007,31.0615185 C27.3156448,30.9292715 28.5937466,30.7379856 28.5937466,30.7379856 C27.5117306,30.8111938 26.4675143,30.9056559 25.4540103,31.0119258 L25.8131073,31.3779667 C28.49216,30.9552486 30.3018199,30.7710473 30.6254797,30.7450703 L30.6231173,30.7450703 Z" id="形状"></path>
                </g>
            </g>
        </g>
    </g>
</svg>