<?xml version="1.0" encoding="UTF-8"?>
<svg width="90px" height="90px" viewBox="0 0 90 90" version="1.1" xmlns="http://www.w3.org/2000/svg" xmlns:xlink="http://www.w3.org/1999/xlink">
    <title>编组 15</title>
    <defs>
        <linearGradient x1="50%" y1="0.472574301%" x2="50%" y2="100%" id="linearGradient-1">
            <stop stop-color="#64D4DC" offset="0%"></stop>
            <stop stop-color="#00BAC7" offset="100%"></stop>
        </linearGradient>
    </defs>
    <g id="页面-1" stroke="none" stroke-width="1" fill="none" fill-rule="evenodd">
        <g id="学历查询" transform="translate(-32.000000, -597.000000)">
            <g id="编组-15" transform="translate(32.000000, 597.000000)">
                <rect id="矩形" fill="url(#linearGradient-1)" x="0" y="0" width="90" height="90" rx="45"></rect>
                <path d="M62.0992543,51 C66.5426026,51 70.1985086,54.723148 70.1985086,59.3054984 C70.1985086,61.1384573 69.6360829,62.8567683 68.6236703,64.231511 L70.5359641,66.179024 C71.1546786,66.8090713 71.1546786,67.8401049 70.5359641,68.5274293 C69.9172958,69.1575236 68.9048832,69.1575236 68.2299722,68.5274293 L66.2051471,66.4654092 C65.0240068,67.2100106 63.5616537,67.6109498 62.0993005,67.6109498 C57.6559522,67.6109498 54,63.8878488 54,59.3054984 C54,54.723148 57.5997096,51 62.0992543,51 Z M52.2137875,26 L52.2137875,33.0388353 C52.2137875,35.0166437 53.7965315,36.6454355 55.7896522,36.7618221 L62.8827633,36.7618221 L62.8827633,47.2327016 C62.2965796,47.1163627 61.6517294,47.1163627 61.0068793,47.1163627 C54.5,47.1163627 49.2241545,52.4099719 49.2241545,58.9252346 C49.2241545,62.590052 50.8655169,65.8476356 53.5034397,68 L32.7517198,68 C30.7000289,68 29.0586184,66.4293776 29,64.4515215 L29,29.7230345 C29,27.7451784 30.5827921,26.1163866 32.5758647,26 L52.2137875,26 Z M62.0992543,54.3221618 C59.3995183,54.3221618 57.262208,56.5561069 57.262208,59.3054984 C57.262208,62.0548898 59.4557608,64.288741 62.0992543,64.288741 C64.7427478,64.288741 66.9363007,62.0548428 66.9363007,59.3054514 C66.9363007,56.5560599 64.7427939,54.3221618 62.0992543,54.3221618 Z M47.113749,40.3684654 L34.6276038,40.3684654 C34.4875,40.3678835 34.3529631,40.4228505 34.2538893,40.5211565 C34.1548156,40.6194625 34.0994121,40.7529641 34.0999859,40.8919949 L34.0999859,43.3934236 C34.099425,43.5324462 34.1548341,43.6659355 34.2539065,43.7642311 C34.3529788,43.8625268 34.4875084,43.9174873 34.6276038,43.9169055 L47.113749,43.9169055 C47.2538361,43.9174745 47.3883533,43.8625084 47.4874152,43.7642141 C47.5864771,43.6659198 47.6418797,43.5324379 47.6413186,43.3934236 L47.6413186,40.8919949 C47.6413186,40.5429783 47.4068408,40.3684654 47.113749,40.3684654 Z M47.113749,32.7479881 L34.6276038,32.7479358 C34.4874916,32.7473538 34.3529474,32.8023274 34.2538722,32.9006437 C34.1547971,32.9989601 34.0993992,33.1324739 34.0999857,33.271513 L34.0999857,35.772894 C34.0994121,35.9119249 34.1548156,36.0454264 34.2538893,36.1437324 C34.3529631,36.2420384 34.4875,36.2970054 34.6276038,36.2964236 L47.113749,36.2964236 C47.2538445,36.2969927 47.388369,36.24202 47.4874323,36.1437154 C47.5864956,36.0454108 47.6418925,35.9119166 47.6413188,35.772894 L47.6413188,33.2714653 C47.6418797,33.132451 47.5864771,32.9989691 47.4874152,32.9006748 C47.3883533,32.8023806 47.2538361,32.7474145 47.113749,32.7479881 Z M54.9689469,26.0000954 L63,33.9113768 L56.8448309,33.9113768 C55.7896522,33.9113768 54.9689469,33.0970047 54.9689469,32.0498595 L54.9689469,26.0000954 Z" id="形状结合" fill="#FFFFFF" fill-rule="nonzero"></path>
            </g>
        </g>
    </g>
</svg>