<?xml version="1.0" encoding="UTF-8"?>
<svg width="90px" height="90px" viewBox="0 0 90 90" version="1.1" xmlns="http://www.w3.org/2000/svg" xmlns:xlink="http://www.w3.org/1999/xlink">
    <title>编组 16</title>
    <defs>
        <linearGradient x1="50%" y1="0%" x2="50%" y2="100%" id="linearGradient-1">
            <stop stop-color="#64D4DC" offset="0%"></stop>
            <stop stop-color="#00BAC7" offset="100%"></stop>
        </linearGradient>
    </defs>
    <g id="页面-1" stroke="none" stroke-width="1" fill="none" fill-rule="evenodd">
        <g id="学历查询" transform="translate(-32.000000, -767.000000)">
            <g id="编组-16" transform="translate(32.000000, 767.000000)">
                <rect id="矩形" fill="url(#linearGradient-1)" x="0" y="0" width="90" height="90" rx="45"></rect>
                <path d="M49.8461538,24 C50.7383061,24 51.4615385,24.7232323 51.4615385,25.6153846 L51.4615385,39.8307692 L64.6398462,41.9404615 C65.4232386,42.065812 66,42.7414885 66,43.5348462 L66,64.3846154 C66,65.2767677 65.2767677,66 64.3846154,66 L25.6153846,66 C24.7232323,66 24,65.2767677 24,64.3846154 L24,25.6153846 C24,24.7232323 24.7232323,24 25.6153846,24 L49.8461538,24 Z M34.1576087,53.2173913 L29.3641305,53.2173913 C28.9782678,53.2172627 28.6474553,53.4929397 28.578,53.8725 L28.5652174,54.0163044 L28.5652174,58.8097826 C28.5650888,59.1956453 28.8407658,59.5264577 29.2203261,59.595913 L29.3641305,59.6086957 L34.1576087,59.6086957 C34.5434714,59.6088242 34.8742839,59.3331472 34.9437391,58.9535869 L34.9565217,58.8097826 L34.9565217,54.0163044 C34.9565217,53.5750769 34.5988362,53.2173913 34.1576087,53.2173913 Z M46.0271739,53.2173913 L41.2336957,53.2173913 C40.847833,53.2172627 40.5170205,53.4929397 40.4475653,53.8725 L40.4347826,54.0163044 L40.4347826,58.8097826 C40.434654,59.1956453 40.7103311,59.5264577 41.0898913,59.595913 L41.2336957,59.6086957 L46.0271739,59.6086957 C46.4130366,59.6088242 46.7438491,59.3331472 46.8133043,58.9535869 L46.826087,58.8097826 L46.826087,54.0163044 C46.826087,53.5750769 46.4684014,53.2173913 46.0271739,53.2173913 Z M62.9321738,54.1304348 L55.372174,54.1304348 C55.2240949,54.1303112 55.0942236,54.2402196 55.0549827,54.3988697 L55.0434783,54.4956523 L55.0434783,57.4173912 C55.0433671,57.5819235 55.1422846,57.726225 55.2850697,57.769826 L55.372174,57.7826087 L62.9321738,57.7826087 C63.0802529,57.7827322 63.2101242,57.6728239 63.2493651,57.5141738 L63.2608696,57.4173912 L63.2608696,54.4956523 C63.2609808,54.3311199 63.1620633,54.1868185 63.0192782,54.1432175 L62.9321738,54.1304348 Z M62.9321738,47.7391304 L55.372174,47.7391304 C55.2240949,47.7390069 55.0942236,47.8489152 55.0549827,48.0075653 L55.0434783,48.1043479 L55.0434783,51.0260869 C55.0433671,51.1906192 55.1422846,51.3349206 55.2850697,51.3785216 L55.372174,51.3913043 L62.9321738,51.3913043 C63.0802529,51.3914279 63.2101242,51.2815196 63.2493651,51.1228695 L63.2608696,51.0260869 L63.2608696,48.1043479 C63.2609808,47.9398156 63.1620633,47.7955142 63.0192782,47.7519131 L62.9321738,47.7391304 Z M34.1576087,42.2608696 L29.3641305,42.2608696 C28.9782678,42.260741 28.6474553,42.536418 28.578,42.9159783 L28.5652174,43.0597826 L28.5652174,47.8532608 C28.5650888,48.2391235 28.8407658,48.569936 29.2203261,48.6393913 L29.3641305,48.6521739 L34.1576087,48.6521739 C34.5434714,48.6523025 34.8742839,48.3766255 34.9437391,47.9970652 L34.9565217,47.8532608 L34.9565217,43.0597826 C34.9565217,42.6185552 34.5988362,42.2608696 34.1576087,42.2608696 Z M46.0271739,42.2608696 L41.2336957,42.2608696 C40.847833,42.260741 40.5170205,42.536418 40.4475653,42.9159783 L40.4347826,43.0597826 L40.4347826,47.8532608 C40.434654,48.2391235 40.7103311,48.569936 41.0898913,48.6393913 L41.2336957,48.6521739 L46.0271739,48.6521739 C46.4130366,48.6523025 46.7438491,48.3766255 46.8133043,47.9970652 L46.826087,47.8532608 L46.826087,43.0597826 C46.826087,42.6185552 46.4684014,42.2608696 46.0271739,42.2608696 Z M34.1576087,30.3913043 L29.3641305,30.3913043 C28.9782678,30.3911758 28.6474553,30.6668528 28.578,31.0464131 L28.5652174,31.1902174 L28.5652174,35.9836956 C28.5650888,36.3695583 28.8407658,36.7003708 29.2203261,36.769826 L29.3641305,36.7826087 L34.1576087,36.7826087 C34.5434714,36.7827373 34.8742839,36.5070603 34.9437391,36.1275 L34.9565217,35.9836956 L34.9565217,31.1902174 C34.9565217,30.7489899 34.5988362,30.3913043 34.1576087,30.3913043 Z M46.0271739,30.3913043 L41.2336957,30.3913043 C40.847833,30.3911758 40.5170205,30.6668528 40.4475653,31.0464131 L40.4347826,31.1902174 L40.4347826,35.9836956 C40.434654,36.3695583 40.7103311,36.7003708 41.0898913,36.769826 L41.2336957,36.7826087 L46.0271739,36.7826087 C46.4130366,36.7827373 46.7438491,36.5070603 46.8133043,36.1275 L46.826087,35.9836956 L46.826087,31.1902174 C46.826087,30.7489899 46.4684014,30.3913043 46.0271739,30.3913043 Z" id="形状" fill="#FFFFFF" fill-rule="nonzero"></path>
            </g>
        </g>
    </g>
</svg>