<?xml version="1.0" encoding="UTF-8"?>
<svg width="76px" height="76px" viewBox="0 0 76 76" version="1.1" xmlns="http://www.w3.org/2000/svg" xmlns:xlink="http://www.w3.org/1999/xlink">
    <title>编组</title>
    <defs>
        <linearGradient x1="50%" y1="0%" x2="50%" y2="100%" id="linearGradient-1">
            <stop stop-color="#64D4DC" stop-opacity="0.99571132" offset="0%"></stop>
            <stop stop-color="#00BAC7" offset="100%"></stop>
        </linearGradient>
    </defs>
    <g id="页面-1" stroke="none" stroke-width="1" fill="none" fill-rule="evenodd">
        <g id="出国教育背景服务" transform="translate(-112.000000, -488.000000)">
            <g id="编组" transform="translate(112.000000, 488.000000)">
                <rect id="矩形" fill="url(#linearGradient-1)" x="0" y="0" width="76" height="76" rx="38"></rect>
                <path d="M54.2073491,20 C56.8530184,20 58.9947507,22.179085 59,24.870896 L59,46.8059505 C58.9947507,49.4977614 56.847769,51.6821874 54.2020997,51.6821874 L43.3884514,51.6821874 L43.3884514,56.5584242 L45.7821522,56.5584242 C46.2178478,56.5424015 46.6325459,56.77206 46.8530184,57.1566044 C47.0787402,57.5411489 47.0787402,58.0164885 46.8530184,58.4010329 C46.6272966,58.7855773 46.2178478,59.0152358 45.7821522,58.9992131 L31.4094488,58.9992131 C30.7480315,58.9992131 30.2125984,58.4544418 30.2125984,57.7814891 C30.2125984,57.1085364 30.7480315,56.5637651 31.4094488,56.5637651 L33.8031496,56.5637651 L33.8031496,51.6875283 L21.7926509,51.6875283 C19.1469816,51.6875283 17,49.5031023 17,46.8112914 L17,24.870896 C17,22.179085 19.1469816,20 21.7926509,20 L54.2073491,20 Z M39.0250294,30.2631579 L28.2682927,41.0397941 L28.2682927,45.6578947 L32.8774096,45.6578947 L43.6341463,34.8812586 L39.0250294,30.2631579 Z M46.4516998,42.5789474 L38.7678124,42.5789474 C38.0608838,42.5789474 37.4878049,43.2681932 37.4878049,44.1184211 C37.4878049,44.9686489 38.0608838,45.6578947 38.7678124,45.6578947 L38.7678124,45.6578947 L46.4516998,45.6578947 C47.1586284,45.6578947 47.7317073,44.9686489 47.7317073,44.1184211 C47.7317073,43.2681932 47.1586284,42.5789474 46.4516998,42.5789474 L46.4516998,42.5789474 Z M43.5816098,27.5530845 C43.0905067,27.0612525 42.2947964,27.0612525 41.8036933,27.5530845 L41.8036933,27.5530845 L40.5609756,28.7982725 L45.0953859,33.3421053 L46.3387325,32.0962868 C46.5747281,31.8597982 46.7073171,31.5389932 46.7073171,31.20448 C46.7073171,30.8699668 46.5747281,30.5491619 46.3387325,30.3126733 L46.3387325,30.3126733 L43.5822387,27.5524541 Z" id="形状" fill="#FFFFFF" fill-rule="nonzero"></path>
            </g>
        </g>
    </g>
</svg>