<?xml version="1.0" encoding="UTF-8"?>
<svg width="76px" height="76px" viewBox="0 0 76 76" version="1.1" xmlns="http://www.w3.org/2000/svg" xmlns:xlink="http://www.w3.org/1999/xlink">
    <title>编组 2</title>
    <defs>
        <linearGradient x1="50%" y1="0.472574301%" x2="50%" y2="100%" id="linearGradient-1">
            <stop stop-color="#64D4DC" offset="0%"></stop>
            <stop stop-color="#00BAC7" offset="100%"></stop>
        </linearGradient>
    </defs>
    <g id="页面-1" stroke="none" stroke-width="1" fill="none" fill-rule="evenodd">
        <g id="出国教育背景服务" transform="translate(-337.000000, -488.000000)">
            <g id="编组-2" transform="translate(337.000000, 488.000000)">
                <rect id="矩形" fill="url(#linearGradient-1)" x="0" y="0" width="76" height="76" rx="38"></rect>
                <g id="现场信息" transform="translate(19.000000, 18.000000)" fill="#FFFFFF" fill-rule="nonzero">
                    <path d="M26.8091826,32.9717378 L26.7363051,32.8707156 C23.9718207,29.1377029 22.6843192,26.3283223 22.6843192,24.0240529 C22.6843192,18.8045701 26.7654561,14.5135298 31.9348961,14.1142514 L31.9348961,1.73180998 C31.9348961,0.774503909 31.1526782,0 30.1858375,0 L1.74905867,0 C0.782217904,0 0,0.774503909 0,1.73180998 L0,38.26819 C0,39.2254961 0.782217904,40 1.74905867,40 L22.7086117,40 C22.4365359,39.3842453 22.2859225,38.7011425 22.2859225,37.9891762 C22.2859225,35.3962718 24.268189,33.2555622 26.8091826,32.9717378 Z M18.7440787,29.9458809 C18.7440787,30.7588695 18.0784647,31.4179194 17.2573788,31.4179194 L9.07081258,31.4179194 C8.24972671,31.4179194 7.57925422,30.7588695 7.57925422,29.9458809 L7.57925422,29.0463019 C7.57925422,28.2333133 8.24486821,27.5694528 9.07081258,27.5694528 L17.2525203,27.5694528 C18.0736062,27.5694528 18.7392202,28.2285027 18.7392202,29.0463019 L18.7392202,29.9458809 L18.7440787,29.9458809 Z M18.7440787,20.132291 C18.7440787,20.9452796 18.0784647,21.6043295 17.2573788,21.6043295 L9.07081258,21.6043295 C8.24972671,21.6043295 7.57925422,20.9452796 7.57925422,20.132291 L7.57925422,19.232712 C7.57925422,18.4197234 8.24486821,17.7558629 9.07081258,17.7558629 L17.2525203,17.7558629 C18.0736062,17.7558629 18.7392202,18.4149128 18.7392202,19.232712 L18.7392202,20.132291 L18.7440787,20.132291 Z M9.07081258,11.7955502 C8.24972671,11.7955502 7.57925422,11.1365003 7.57925422,10.3235117 L7.57925422,9.42393265 C7.57925422,8.61094408 8.24486821,7.94708358 9.07081258,7.94708358 L22.8592251,7.94708358 C23.6803109,7.94708358 24.3507834,8.60613349 24.3507834,9.42393265 L24.3507834,10.3235117 C24.3507834,11.1365003 23.6851694,11.7955502 22.8592251,11.7955502 L9.07081258,11.7955502 Z M38.0566015,36.0649429 L27.3873436,36.0649429 C26.3136159,36.0649429 25.4439451,36.9260373 25.4439451,37.9891762 C25.4439451,39.0523151 26.3136159,39.9134095 27.3873436,39.9134095 L38.0566015,39.9134095 C39.1303292,39.9134095 40,39.0523151 40,37.9891762 C40,36.9260373 39.1303292,36.0649429 38.0566015,36.0649429 Z" id="形状"></path>
                    <path d="M26,23.8197861 C26,27.5834225 32.5,35 32.5,35 C32.5,35 39,27.5882353 39,23.8197861 C39,20.0513369 36.0917431,17 32.5,17 C28.9082569,17 26,20.0513369 26,23.8197861 Z M32.5,21.0812834 C34.059633,21.0812834 35.3211009,22.4096257 35.3211009,24.0411765 C35.3211009,25.6727273 34.0550459,27.0010695 32.5,27.0010695 C30.9449541,27.0010695 29.6743119,25.6775401 29.6743119,24.0411765 C29.6743119,22.4048128 30.940367,21.0812834 32.5,21.0812834 Z" id="形状"></path>
                </g>
            </g>
        </g>
    </g>
</svg>