<?xml version="1.0" encoding="UTF-8"?>
<svg width="76px" height="76px" viewBox="0 0 76 76" version="1.1" xmlns="http://www.w3.org/2000/svg" xmlns:xlink="http://www.w3.org/1999/xlink">
    <title>编组 4</title>
    <defs>
        <linearGradient x1="50%" y1="0%" x2="50%" y2="100%" id="linearGradient-1">
            <stop stop-color="#64D4DC" stop-opacity="0.99571132" offset="0%"></stop>
            <stop stop-color="#00BAC7" offset="100%"></stop>
        </linearGradient>
    </defs>
    <g id="页面-1" stroke="none" stroke-width="1" fill="none" fill-rule="evenodd">
        <g id="出国教育背景服务" transform="translate(-112.000000, -948.000000)">
            <g id="编组-4" transform="translate(112.000000, 948.000000)">
                <rect id="矩形" fill="url(#linearGradient-1)" x="0" y="0" width="76" height="76" rx="38"></rect>
                <path d="M42.0348837,18 C42.9312016,18 43.7887597,18.354197 44.4234496,18.9898108 L44.4234496,18.9898108 L54.0116279,28.5967977 C54.6463178,29.2324115 55,30.0912179 55,30.9888404 L55,30.9888404 L55,35.7341097 C53.4738372,35.1081999 51.8023256,34.768559 50.0484496,34.768559 C42.7713178,34.768559 36.870155,40.6783115 36.870155,47.9660359 C36.870155,51.9835032 38.6627907,55.5788452 41.4922481,58 L41.4922481,58 L23.6676357,58 C21.6424419,58 20,56.3551674 20,54.3270257 L20,54.3270257 L20,21.6729743 C20,19.6448326 21.6424419,18 23.6676357,18 L23.6676357,18 Z M50,38 C55.5212355,38 60,42.4787645 60,48 C60,53.5212355 55.5212355,58 50,58 C44.4787645,58 40,53.5212355 40,48 C40,42.4787645 44.4787645,38 50,38 Z M50.2895753,42.3050193 C50.1785714,42.0733591 49.8503861,42.0733591 49.734556,42.3050193 L49.734556,42.3050193 L48.0743243,45.6689189 C48.030888,45.7606178 47.9440154,45.8233591 47.8426641,45.8378378 L47.8426641,45.8378378 L44.1312741,46.3783784 C43.8754826,46.4169884 43.7741313,46.730695 43.957529,46.9092664 L43.957529,46.9092664 L46.6409266,49.5250965 C46.7133205,49.5974903 46.742278,49.6988417 46.7277992,49.8001931 L46.7277992,49.8001931 L46.0955598,53.4971042 C46.0521236,53.7528958 46.3175676,53.9459459 46.5444015,53.8252896 L46.5444015,53.8252896 L49.8600386,52.0830116 C49.9517375,52.034749 50.0579151,52.034749 50.1496139,52.0830116 L50.1496139,52.0830116 L53.465251,53.8252896 C53.6920849,53.9411197 53.957529,53.7480695 53.9140927,53.4971042 L53.9140927,53.4971042 L53.2818533,49.8001931 C53.2625483,49.6988417 53.296332,49.5974903 53.3687259,49.5250965 L53.3687259,49.5250965 L56.0521236,46.9092664 C56.2355212,46.730695 56.1341699,46.4218147 55.8928571,46.3783784 L55.8928571,46.3783784 L52.1814672,45.8378378 C52.0801158,45.8233591 51.9932432,45.7606178 51.9498069,45.6689189 L51.9498069,45.6689189 Z M30.3052326,45.6904415 L28.9098837,45.6904415 C28.4399225,45.6904415 28.0135659,45.8845221 27.7083333,46.1901989 C27.3982558,46.5007278 27.2093023,46.922853 27.2093023,47.3934983 C27.2093023,48.3299369 27.9699612,49.0917031 28.9050388,49.0917031 L28.9050388,49.0917031 L30.3003876,49.0917031 C30.7703488,49.0917031 31.1967054,48.8976225 31.501938,48.5919457 C31.8071705,48.2862688 32.000969,47.8641436 32.000969,47.3886463 C32.000969,46.4522077 31.2403101,45.6904415 30.3052326,45.6904415 L30.3052326,45.6904415 Z M34.4476744,35.3896167 L28.9098837,35.3896167 C28.4399225,35.3896167 28.0135659,35.5836972 27.7083333,35.8893741 C27.3982558,36.199903 27.2093023,36.6220281 27.2093023,37.0926735 C27.2093023,38.0291121 27.9699612,38.7908782 28.9050388,38.7908782 L28.9050388,38.7908782 L34.4428295,38.7908782 C34.9127907,38.7908782 35.3391473,38.5967977 35.6443798,38.2911208 C35.9496124,37.9805919 36.1434109,37.5584668 36.1434109,37.0878214 C36.1434109,36.1513828 35.3827519,35.3896167 34.4476744,35.3896167 L34.4476744,35.3896167 Z M46.0998062,25.0790878 L28.9098837,25.0790878 C28.4399225,25.0790878 28.0135659,25.2731684 27.7083333,25.5788452 C27.3982558,25.8893741 27.2093023,26.3114993 27.2093023,26.7821446 C27.2093023,27.7185832 27.9699612,28.4803493 28.9050388,28.4803493 L28.9050388,28.4803493 L46.0949612,28.4803493 C46.5649225,28.4803493 46.9864341,28.2911208 47.2965116,27.9805919 C47.6065891,27.6700631 47.7955426,27.2479379 47.7955426,26.7772926 C47.7955426,25.840854 47.0348837,25.0790878 46.0998062,25.0790878 L46.0998062,25.0790878 Z" id="形状结合" fill="#FFFFFF" fill-rule="nonzero"></path>
            </g>
        </g>
    </g>
</svg>